STARTFONT 2.1
COMMENT
COMMENT Converted from OpenType font "Patriot-Bold.otf" by "otf2bdf 3.0".
COMMENT
FONT -FreeType-Patriot Bold-Medium-R-Normal--33-240-100-100-P-166-ISO10646-1
SIZE 24 100 100
FONTBOUNDINGBOX 58 43 -14 -9
STARTPROPERTIES 19
FOUNDRY "FreeType"
FAMILY_NAME "Patriot Bold"
WEIGHT_NAME "Medium"
SLANT "R"
SETWIDTH_NAME "Normal"
ADD_STYLE_NAME ""
PIXEL_SIZE 33
POINT_SIZE 240
RESOLUTION_X 100
RESOLUTION_Y 100
SPACING "P"
AVERAGE_WIDTH 166
CHARSET_REGISTRY "ISO10646"
CHARSET_ENCODING "1"
FONT_ASCENT 33
FONT_DESCENT 6
COPYRIGHT "Copyright © 2020 by Behalf Studio. All rights reserved."
_OTF_FONTFILE "Patriot-Bold.otf"
_OTF_PSNAME "Patriot-Bold"
ENDPROPERTIES
CHARS 426
STARTCHAR 0020
ENCODING 32
SWIDTH 360 0
DWIDTH 12 0
BBX 0 0 0 0
BITMAP
ENDCHAR
STARTCHAR 0021
ENCODING 33
SWIDTH 270 0
DWIDTH 9 0
BBX 6 24 2 -1
BITMAP
F8
F8
F8
F8
F8
F8
F8
F8
F8
F8
F8
F8
F8
F8
F8
00
00
00
78
F8
FC
FC
78
20
ENDCHAR
STARTCHAR 0022
ENCODING 34
SWIDTH 330 0
DWIDTH 11 0
BBX 8 7 2 16
BITMAP
E7
E7
E7
E7
E7
E7
E7
ENDCHAR
STARTCHAR 0023
ENCODING 35
SWIDTH 630 0
DWIDTH 21 0
BBX 18 23 2 0
BITMAP
078F00
078F00
078F00
0F0F00
0F0F00
0F0F00
7FFFC0
7FFFC0
7FFFC0
7FFFC0
1E1E00
1E1E00
1E1E00
FFFF80
FFFF80
FFFF80
FFFF80
3C3C00
3C3C00
3C3C00
3C7800
3C7800
3C7800
ENDCHAR
STARTCHAR 0024
ENCODING 36
SWIDTH 570 0
DWIDTH 19 0
BBX 15 30 2 -3
BITMAP
0380
0380
0380
07C0
1FF0
3FF8
7FFC
7FFC
7C7E
7C38
7C00
7E00
7F00
3FC0
1FE0
0FF8
03FC
01FC
007E
003E
183E
F83E
FC7E
7FFE
7FFC
3FF8
0FF0
0380
0380
0380
ENDCHAR
STARTCHAR 0025
ENCODING 37
SWIDTH 930 0
DWIDTH 31 0
BBX 28 24 2 0
BITMAP
1F800000
3FC00F00
7FE01E00
FFF03C00
F0F03800
F0F07800
F0F0F000
F0F1E000
7FF1E000
7FE3C000
3FC78000
06070000
000F0000
001E1F80
001C3FC0
003C7FE0
0078F9F0
00F0F0F0
00F0F0F0
01E0F0F0
03C0F9F0
03807FE0
07807FE0
0F003F80
ENDCHAR
STARTCHAR 0026
ENCODING 38
SWIDTH 660 0
DWIDTH 22 0
BBX 19 25 2 -1
BITMAP
03E000
0FF800
3FFC00
3FFE00
7FFE00
7C3C00
7C1800
780000
7C0000
7E0000
7FFFE0
3FFFE0
3FFFE0
7FFFE0
7F0F80
FC0F80
F80F80
F80F80
F81F80
FE3F00
7FFF00
7FFE00
3FFC00
0FF800
018000
ENDCHAR
STARTCHAR 0027
ENCODING 39
SWIDTH 180 0
DWIDTH 6 0
BBX 3 7 2 16
BITMAP
E0
E0
E0
E0
E0
E0
E0
ENDCHAR
STARTCHAR 0028
ENCODING 40
SWIDTH 360 0
DWIDTH 12 0
BBX 8 32 2 -5
BITMAP
04
07
0F
1E
1E
3C
3C
78
78
70
70
F0
F0
E0
E0
E0
E0
E0
E0
F0
F0
F0
70
78
78
3C
3C
1E
1E
0F
06
04
ENDCHAR
STARTCHAR 0029
ENCODING 41
SWIDTH 360 0
DWIDTH 12 0
BBX 8 32 2 -5
BITMAP
20
70
F0
78
78
3C
1C
1E
1E
0E
0F
0F
07
07
07
07
07
07
07
07
0F
0F
0E
0E
1E
1C
3C
38
78
F0
70
20
ENDCHAR
STARTCHAR 002A
ENCODING 42
SWIDTH 450 0
DWIDTH 15 0
BBX 11 11 2 12
BITMAP
0600
0E00
0E00
6E60
F7E0
FFE0
7FC0
1F00
3BC0
7BC0
39C0
ENDCHAR
STARTCHAR 002B
ENCODING 43
SWIDTH 570 0
DWIDTH 19 0
BBX 16 16 2 3
BITMAP
03C0
03C0
03C0
03C0
03C0
03C0
FFFF
FFFF
FFFF
FFFF
03C0
03C0
03C0
03C0
03C0
03C0
ENDCHAR
STARTCHAR 002C
ENCODING 44
SWIDTH 270 0
DWIDTH 9 0
BBX 6 7 2 -4
BITMAP
3C
38
78
70
70
E0
E0
ENDCHAR
STARTCHAR 002D
ENCODING 45
SWIDTH 450 0
DWIDTH 15 0
BBX 11 3 2 6
BITMAP
FFE0
FFE0
FFE0
ENDCHAR
STARTCHAR 002E
ENCODING 46
SWIDTH 270 0
DWIDTH 9 0
BBX 6 6 2 -1
BITMAP
78
F8
FC
FC
78
20
ENDCHAR
STARTCHAR 002F
ENCODING 47
SWIDTH 420 0
DWIDTH 14 0
BBX 11 25 2 -1
BITMAP
01E0
01C0
03C0
03C0
03C0
0780
0780
0780
0F00
0F00
0F00
0F00
1E00
1E00
1E00
3C00
3C00
3C00
3C00
7800
7800
7800
F000
F000
F000
ENDCHAR
STARTCHAR 0030
ENCODING 48
SWIDTH 720 0
DWIDTH 24 0
BBX 23 25 1 -1
BITMAP
007C00
03FF80
0FFFC0
1FFFE0
3FFFF0
3F03F8
7E00F8
7C007C
7C007C
F8007C
F8003C
F8003E
F8003E
F8003E
F8003C
78007C
7C007C
7C00FC
3E01F8
3F83F8
1FFFF0
0FFFE0
07FFC0
01FF00
001000
ENDCHAR
STARTCHAR 0031
ENCODING 49
SWIDTH 330 0
DWIDTH 11 0
BBX 8 23 2 0
BITMAP
1F
1F
FF
FF
FF
FF
1F
1F
1F
1F
1F
1F
1F
1F
1F
1F
1F
1F
1F
1F
1F
1F
1F
ENDCHAR
STARTCHAR 0032
ENCODING 50
SWIDTH 570 0
DWIDTH 19 0
BBX 17 24 1 0
BITMAP
03E000
0FF800
1FFE00
3FFE00
7FFF00
7E1F00
7C0F00
F80F80
000F00
001F00
001F00
003E00
007E00
007C00
00F800
01F800
03F000
07E000
0FC000
1F8000
3FFF80
7FFF80
FFFF80
FFFF80
ENDCHAR
STARTCHAR 0033
ENCODING 51
SWIDTH 540 0
DWIDTH 18 0
BBX 16 24 1 -1
BITMAP
7FFE
7FFE
7FFC
7FF8
01F0
03E0
07C0
0FE0
0FF0
1FFC
3FFC
1FFE
083F
001F
001F
001F
001F
103F
3C7E
FFFE
7FFC
3FF8
1FF0
0100
ENDCHAR
STARTCHAR 0034
ENCODING 52
SWIDTH 570 0
DWIDTH 19 0
BBX 17 23 1 0
BITMAP
00FE00
03FE00
0FFE00
1FFE00
3FFE00
3F3E00
7E3E00
7C3E00
F83E00
F83E00
F83E00
F83E00
F83E00
FFFF80
FFFF80
FFFF80
FFFF80
003E00
003E00
003E00
003E00
003E00
003E00
ENDCHAR
STARTCHAR 0035
ENCODING 53
SWIDTH 540 0
DWIDTH 18 0
BBX 15 24 2 -1
BITMAP
7FFE
7FFE
7FFE
7FFE
7800
7800
F800
FFE0
FFF0
FFFC
FFFC
FFFE
303E
003E
001E
001E
003E
303E
787E
FFFC
FFFC
7FF8
1FE0
0100
ENDCHAR
STARTCHAR 0036
ENCODING 54
SWIDTH 630 0
DWIDTH 21 0
BBX 18 24 2 -1
BITMAP
01F800
01F000
03F000
07E000
07C000
0F8000
1FF000
3FFC00
3FFF00
7FFF00
7E1F80
FC0F80
F807C0
F007C0
F007C0
F007C0
F807C0
F80F80
FE1F80
7FFF00
3FFF00
1FFE00
0FF800
008000
ENDCHAR
STARTCHAR 0037
ENCODING 55
SWIDTH 480 0
DWIDTH 16 0
BBX 16 23 1 0
BITMAP
FFFF
FFFF
FFFF
FFFE
003E
007C
007C
007C
00F8
3FFE
3FFE
3FFE
3FFE
03E0
03E0
03C0
07C0
07C0
0F80
0F80
0F00
1F00
1F00
ENDCHAR
STARTCHAR 0038
ENCODING 56
SWIDTH 570 0
DWIDTH 19 0
BBX 17 25 1 -1
BITMAP
01E000
0FF800
1FFC00
1FFE00
3F7E00
3E3E00
3C1E00
3E3E00
3F7E00
1FFE00
1FFC00
3FFE00
7FFF00
7C1F00
F80F80
F80F80
F80F80
F80F80
FC0F80
7E3F00
7FFF00
3FFE00
1FFC00
0FF800
008000
ENDCHAR
STARTCHAR 0039
ENCODING 57
SWIDTH 600 0
DWIDTH 20 0
BBX 19 24 1 0
BITMAP
01F000
0FFC00
1FFF00
3FFF80
7FFF80
7E0FC0
7C07C0
F803C0
F803E0
F803E0
F803E0
7C07C0
7E0FC0
7FBF80
3FFF80
1FFF00
0FFF00
017E00
007C00
00F800
01F800
03F000
03E000
07E000
ENDCHAR
STARTCHAR 003A
ENCODING 58
SWIDTH 270 0
DWIDTH 9 0
BBX 6 18 2 -1
BITMAP
70
F8
FC
FC
F8
70
00
00
00
00
00
00
78
F8
FC
FC
78
20
ENDCHAR
STARTCHAR 003B
ENCODING 59
SWIDTH 300 0
DWIDTH 10 0
BBX 6 21 2 -4
BITMAP
38
7C
7C
7C
7C
38
00
00
00
00
00
00
00
00
3C
38
78
70
70
E0
E0
ENDCHAR
STARTCHAR 003C
ENCODING 60
SWIDTH 570 0
DWIDTH 19 0
BBX 16 15 2 3
BITMAP
0003
001F
007F
03FF
1FF8
FFC0
FE00
F000
FE00
FFC0
1FF8
03FF
00FF
001F
0003
ENDCHAR
STARTCHAR 003D
ENCODING 61
SWIDTH 570 0
DWIDTH 19 0
BBX 16 11 2 5
BITMAP
FFFF
FFFF
FFFF
0000
0000
0000
0000
FFFF
FFFF
FFFF
FFFF
ENDCHAR
STARTCHAR 003E
ENCODING 62
SWIDTH 570 0
DWIDTH 19 0
BBX 16 15 2 3
BITMAP
C000
F000
FE00
FFC0
1FF0
07FE
00FF
001F
007F
03FE
1FF8
FFC0
FE00
F000
C000
ENDCHAR
STARTCHAR 003F
ENCODING 63
SWIDTH 450 0
DWIDTH 15 0
BBX 12 25 2 -1
BITMAP
0F00
3FC0
7FE0
FFE0
FBE0
31F0
01E0
03E0
03C0
07C0
0F80
0F00
1F00
1F00
1E00
1E00
0000
0000
0000
0E00
1F00
1F00
1F00
1F00
0400
ENDCHAR
STARTCHAR 0040
ENCODING 64
SWIDTH 810 0
DWIDTH 27 0
BBX 24 25 2 -1
BITMAP
007F80
03FFE0
07FFF0
0F0078
1E003C
3C001E
78100E
707F8E
F0FF87
E1FF87
E1E387
E1E387
E3E38E
E3E78E
E1FF9E
E1FFFC
70FDF8
702040
380000
3C0010
1E0038
0FC1F8
07FFF0
01FFC0
000C00
ENDCHAR
STARTCHAR 0041
ENCODING 65
SWIDTH 570 0
DWIDTH 19 0
BBX 17 24 2 0
BITMAP
078000
1FF000
3FF800
7FF800
FFFC00
FC7C00
F87E00
F83E00
F83E00
F83E00
F83E00
F83E00
F83E00
F83E00
F83E00
F83E00
F83E00
F83E00
F83E00
FFFF80
FFFF80
FFFF80
FFFF80
FFFF80
ENDCHAR
STARTCHAR 0042
ENCODING 66
SWIDTH 630 0
DWIDTH 21 0
BBX 20 23 1 0
BITMAP
3FFE00
3FFF80
3FFFC0
3FFFC0
3E0FE0
3E03E0
3E03E0
3E03E0
3E07E0
FFFFC0
FFFFC0
FFFFC0
FFFFE0
3E0FE0
3E03E0
3E03F0
3E03F0
3E03E0
3FFFE0
3FFFE0
3FFFC0
3FFF80
3FFE00
ENDCHAR
STARTCHAR 0043
ENCODING 67
SWIDTH 690 0
DWIDTH 23 0
BBX 21 25 1 -1
BITMAP
003F00
01FFC0
07FFF0
0FFFF8
1FFFF8
3FC0F0
3F0060
7E0000
7C0000
7C0000
F80000
F80000
F80000
F80000
FC0000
7C0000
7C0000
7E0000
3F0060
3FE1F0
1FFFF8
0FFFF8
03FFE0
00FFC0
000C00
ENDCHAR
STARTCHAR 0044
ENCODING 68
SWIDTH 690 0
DWIDTH 23 0
BBX 20 23 2 0
BITMAP
FFF800
FFFE00
FFFF00
FFFF80
F87FC0
F80FC0
F807E0
F803E0
F803F0
F801F0
F801F0
F801F0
F801F0
F801F0
F803E0
F803E0
F807E0
F81FC0
FFFFC0
FFFF80
FFFF00
FFFC00
FFF000
ENDCHAR
STARTCHAR 0045
ENCODING 69
SWIDTH 510 0
DWIDTH 17 0
BBX 16 23 1 0
BITMAP
3FF0
3FF0
3FF0
3FF0
3E00
3E00
3E00
3E00
3E00
FFF8
FFF8
FFF8
FFF8
3E00
3E00
3E00
3E00
3E00
3FFF
3FFF
3FFF
3FFF
3FFF
ENDCHAR
STARTCHAR 0046
ENCODING 70
SWIDTH 480 0
DWIDTH 16 0
BBX 15 23 1 0
BITMAP
3FFE
3FFE
3FFE
3FFE
3E00
3E00
3E00
3E00
3E00
3E00
FFFC
FFFC
FFFC
FFFC
3E00
3E00
3E00
3E00
3E00
3E00
3E00
3E00
3E00
ENDCHAR
STARTCHAR 0047
ENCODING 71
SWIDTH 810 0
DWIDTH 27 0
BBX 26 25 1 -1
BITMAP
003F0000
01FFC000
07FFF000
0FFFF800
1FFFF800
3FC0F000
3F006000
7E000000
7C000000
7C000000
F80FFFC0
F80FFFC0
F80FFFC0
F80FFFC0
FC0FFFC0
7C001F00
7C003F00
7E003F00
3F007E00
1FC1FE00
1FFFFC00
0FFFF800
03FFF000
00FFC000
000C0000
ENDCHAR
STARTCHAR 0048
ENCODING 72
SWIDTH 570 0
DWIDTH 19 0
BBX 17 23 1 0
BITMAP
3E0F80
3E0F80
3E0F80
3E0F80
3E0F80
3E0F80
3E0F80
3E0F80
3E0F80
3E0F80
FFFF80
FFFF80
FFFF80
FFFF80
FFFF80
3E0F80
3E0F80
3E0F80
3E0F80
3E0F80
3E0F80
3E0F80
3E0F80
ENDCHAR
STARTCHAR 0049
ENCODING 73
SWIDTH 240 0
DWIDTH 8 0
BBX 10 26 -1 1
BITMAP
0400
0C00
1E00
FFC0
3F00
1F00
1F00
3300
2000
0000
0000
0000
1F00
1F00
1F00
1F00
1F00
1F00
1F00
1F00
1F00
1F00
1F00
1F00
1F00
1F00
ENDCHAR
STARTCHAR 004A
ENCODING 74
SWIDTH 480 0
DWIDTH 16 0
BBX 14 24 1 -1
BITMAP
03FC
03FC
03FC
03FC
00FC
00FC
00FC
00FC
00FC
00FC
00FC
00FC
00FC
00FC
00FC
00F8
00F8
10F8
79F8
FFF8
FFF0
7FE0
3FC0
0200
ENDCHAR
STARTCHAR 004B
ENCODING 75
SWIDTH 570 0
DWIDTH 19 0
BBX 17 23 1 0
BITMAP
3E1F00
3E1F00
3E1F00
3E1F00
3E1F00
3E1F00
3E3F00
3E3E00
3E7E00
FFFE00
FFFE00
FFFE00
FFFF00
3E3F00
3E1F80
3E0F80
3E0F80
3E0F80
3E0F80
3E0F80
3E0F80
3E0F80
3E0F80
ENDCHAR
STARTCHAR 004C
ENCODING 76
SWIDTH 450 0
DWIDTH 15 0
BBX 13 23 2 0
BITMAP
F800
F800
F800
F800
F800
F800
F800
F800
F800
F800
F800
F800
F800
F800
F800
F800
F800
F800
FFF8
FFF8
FFF8
FFF8
FFF8
ENDCHAR
STARTCHAR 004D
ENCODING 77
SWIDTH 870 0
DWIDTH 29 0
BBX 27 24 1 0
BITMAP
20080000
780E03E0
7C0F03E0
FE0F83E0
FF0FE3E0
3FCFF3E0
3FEFFBE0
3FFFFFE0
3FFFFFE0
3FFFFFE0
3E7F9FE0
3E3F8FE0
3E1F87E0
3E0F83E0
3E0F83E0
3E0F83E0
3E0F83E0
3E0F83E0
3E0F83E0
3E0F83E0
3E0F83E0
3E0F83E0
3E0F83E0
3E0F83E0
ENDCHAR
STARTCHAR 004E
ENCODING 78
SWIDTH 570 0
DWIDTH 19 0
BBX 17 24 1 0
BITMAP
200000
780F80
7C0F80
FE0F80
FF0F80
3FCF80
3FEF80
3FFF80
3FFF80
3FFF80
3EFF80
3E7F80
3E1F80
3E0F80
3E0F80
3E0F80
3E0F80
3E0F80
3E0F80
3E0F80
3E0F80
3E0F80
3E0F80
3E0F80
ENDCHAR
STARTCHAR 004F
ENCODING 79
SWIDTH 810 0
DWIDTH 27 0
BBX 25 25 1 -1
BITMAP
003F0000
01FFE000
07FFF000
0FFFFC00
1FFFFE00
3FC0FE00
3F003F00
7E001F00
7C001F80
7C000F80
F8000F80
F8000F80
F8000F80
F8000F80
FC000F80
7C000F80
7C001F80
7E003F00
3F007F00
1FE1FE00
1FFFFC00
0FFFF800
03FFF000
00FFC000
000C0000
ENDCHAR
STARTCHAR 0050
ENCODING 80
SWIDTH 570 0
DWIDTH 19 0
BBX 18 23 1 0
BITMAP
3FFC00
3FFF00
3FFF00
3FFF80
3E1FC0
3E07C0
3E07C0
3E07C0
3E07C0
3E0FC0
FFFF80
FFFF80
FFFF00
FFFC00
FFC000
3E0000
3E0000
3E0000
3E0000
3E0000
3E0000
3E0000
3E0000
ENDCHAR
STARTCHAR 0051
ENCODING 81
SWIDTH 810 0
DWIDTH 27 0
BBX 25 25 1 -1
BITMAP
003F0000
01FFE000
07FFF000
0FFFFC00
1FFFFE00
3FC0FE00
3F003F00
7E001F00
7C001F80
7C000F80
F8000F80
F8000F80
F8000F80
F8000F80
FC000F80
7C000F80
7C001F80
7E003F00
3F007F00
1FE1FE00
1FFFFE00
0FFFFF00
03FFFF00
00FFDE00
000C0C00
ENDCHAR
STARTCHAR 0052
ENCODING 82
SWIDTH 600 0
DWIDTH 20 0
BBX 19 23 1 0
BITMAP
3FFE00
3FFF00
3FFF80
3FFFC0
3E0FC0
3E07E0
3E03E0
3E03E0
3E07E0
3E0FC0
FFFFC0
FFFF80
FFFF00
FFFF80
3E1F80
3E0F80
3E07C0
3E07C0
3E07C0
3E07C0
3E07C0
3E07C0
3E07C0
ENDCHAR
STARTCHAR 0053
ENCODING 83
SWIDTH 510 0
DWIDTH 17 0
BBX 15 25 1 -1
BITMAP
07C0
1FF0
3FF8
7FFC
7FFC
7C7E
7C38
7C00
7E00
3F80
3FC0
1FF0
0FF8
03FC
01FE
007E
003E
183E
F83E
FE7E
7FFE
7FFC
3FF8
0FF0
0080
ENDCHAR
STARTCHAR 0054
ENCODING 84
SWIDTH 510 0
DWIDTH 17 0
BBX 16 23 1 0
BITMAP
FFFF
FFFF
FFFF
FFFF
07C0
07C0
07C0
07C0
07C0
07C0
07C0
07C0
07C0
07C0
07C0
07C0
07C0
07C0
07C0
07C0
07C0
07C0
07C0
ENDCHAR
STARTCHAR 0055
ENCODING 85
SWIDTH 540 0
DWIDTH 18 0
BBX 15 24 2 -1
BITMAP
F83E
F83E
F83E
F83E
F83E
F83E
F83E
F83E
F83E
F83E
F83E
F83E
F83E
F83E
F83E
F83E
F83E
F87C
FCFC
FFFC
7FF8
3FF0
1FE0
0100
ENDCHAR
STARTCHAR 0056
ENCODING 86
SWIDTH 480 0
DWIDTH 16 0
BBX 15 23 0 0
BITMAP
F83E
F83E
F83E
F83E
F83E
F83E
F83E
F83E
F83E
F83E
FC3E
7C3E
7C3E
7C3E
7C3E
7C7C
7E7C
3E7C
3EF8
1FF8
1FF0
0FF0
07E0
ENDCHAR
STARTCHAR 0057
ENCODING 87
SWIDTH 780 0
DWIDTH 26 0
BBX 25 23 0 0
BITMAP
F83E0F80
F83E0F80
F83E0F80
F83E0F80
F83E0F80
F83E0F80
F83E0F80
F83E0F80
F83E0F80
F83E0F80
FC3E0F80
7C3E0F80
7C3E0F80
7C3E1F80
7C3F1F00
7C7F1F00
7E7F1F00
3E7FBE00
3EFFBE00
1FFFFE00
1FF7FC00
0FF3F800
07E3F800
ENDCHAR
STARTCHAR 0058
ENCODING 88
SWIDTH 540 0
DWIDTH 18 0
BBX 15 23 2 0
BITMAP
F83E
F83E
F83E
F83E
F83E
F83E
F87E
FEFC
7FFC
7FF8
7FF8
7FFC
FCFC
F87E
F83E
F83E
F83E
F83E
F83E
F83E
F83E
F83E
F83E
ENDCHAR
STARTCHAR 0059
ENCODING 89
SWIDTH 510 0
DWIDTH 17 0
BBX 15 23 1 0
BITMAP
F83E
F83E
F83E
F83E
F83E
F83E
F83E
F83E
F83E
F83E
F83E
7C3E
7C3E
7FFE
3FFC
3FF8
0FF0
07C0
07C0
07C0
07C0
07C0
07C0
ENDCHAR
STARTCHAR 005A
ENCODING 90
SWIDTH 540 0
DWIDTH 18 0
BBX 16 23 1 0
BITMAP
FFFF
FFFF
FFFF
FFFE
007E
007C
00F8
01F8
01F0
03F0
03E0
07E0
07C0
0F80
1F80
1F00
3F00
3E00
7FFF
FFFF
FFFF
FFFF
FFFF
ENDCHAR
STARTCHAR 005B
ENCODING 91
SWIDTH 270 0
DWIDTH 9 0
BBX 6 33 2 -5
BITMAP
FC
FC
FC
E0
E0
E0
E0
E0
E0
E0
E0
E0
E0
E0
E0
E0
E0
E0
E0
E0
E0
E0
E0
E0
E0
E0
E0
E0
E0
E0
FC
FC
FC
ENDCHAR
STARTCHAR 005C
ENCODING 92
SWIDTH 420 0
DWIDTH 14 0
BBX 11 25 2 -1
BITMAP
F000
F000
7800
7800
7800
7800
3C00
3C00
3C00
1E00
1E00
1E00
1E00
0F00
0F00
0F00
0780
0780
0780
0780
03C0
03C0
03C0
01E0
01E0
ENDCHAR
STARTCHAR 005D
ENCODING 93
SWIDTH 270 0
DWIDTH 9 0
BBX 6 33 2 -5
BITMAP
FC
FC
FC
3C
3C
3C
3C
3C
3C
3C
3C
3C
3C
3C
3C
3C
3C
3C
3C
3C
3C
3C
3C
3C
3C
3C
3C
3C
3C
3C
FC
FC
FC
ENDCHAR
STARTCHAR 005E
ENCODING 94
SWIDTH 540 0
DWIDTH 18 0
BBX 14 9 2 11
BITMAP
0FC0
0FC0
1FE0
1FE0
3CF0
3870
7878
7038
F03C
ENDCHAR
STARTCHAR 005F
ENCODING 95
SWIDTH 540 0
DWIDTH 18 0
BBX 15 3 2 -4
BITMAP
FFFE
FFFE
FFFE
ENDCHAR
STARTCHAR 0060
ENCODING 96
SWIDTH 150 0
DWIDTH 5 0
BBX 5 4 0 26
BITMAP
F0
70
38
38
ENDCHAR
STARTCHAR 0061
ENCODING 97
SWIDTH 570 0
DWIDTH 19 0
BBX 17 24 2 0
BITMAP
078000
1FF000
3FF800
7FF800
FFFC00
FC7C00
F87E00
F83E00
F83E00
F83E00
F83E00
F83E00
F83E00
F83E00
F83E00
F83E00
F83E00
F83E00
F83E00
FFFF80
FFFF80
FFFF80
FFFF80
FFFF80
ENDCHAR
STARTCHAR 0062
ENCODING 98
SWIDTH 630 0
DWIDTH 21 0
BBX 20 23 1 0
BITMAP
3FFE00
3FFF80
3FFFC0
3FFFC0
3E0FE0
3E03E0
3E03E0
3E03E0
3E07E0
FFFFC0
FFFFC0
FFFFC0
FFFFE0
3E0FE0
3E03E0
3E03F0
3E03F0
3E03E0
3FFFE0
3FFFE0
3FFFC0
3FFF80
3FFE00
ENDCHAR
STARTCHAR 0063
ENCODING 99
SWIDTH 690 0
DWIDTH 23 0
BBX 21 25 1 -1
BITMAP
003F00
01FFC0
07FFF0
0FFFF8
1FFFF8
3FC0F0
3F0060
7E0000
7C0000
7C0000
F80000
F80000
F80000
F80000
FC0000
7C0000
7C0000
7E0000
3F0060
3FE1F0
1FFFF8
0FFFF8
03FFE0
00FFC0
000C00
ENDCHAR
STARTCHAR 0064
ENCODING 100
SWIDTH 690 0
DWIDTH 23 0
BBX 20 23 2 0
BITMAP
FFF800
FFFE00
FFFF00
FFFF80
F87FC0
F80FC0
F807E0
F803E0
F803F0
F801F0
F801F0
F801F0
F801F0
F801F0
F803E0
F803E0
F807E0
F81FC0
FFFFC0
FFFF80
FFFF00
FFFC00
FFF000
ENDCHAR
STARTCHAR 0065
ENCODING 101
SWIDTH 510 0
DWIDTH 17 0
BBX 16 23 1 0
BITMAP
3FF0
3FF0
3FF0
3FF0
3E00
3E00
3E00
3E00
3E00
FFF8
FFF8
FFF8
FFF8
3E00
3E00
3E00
3E00
3E00
3FFF
3FFF
3FFF
3FFF
3FFF
ENDCHAR
STARTCHAR 0066
ENCODING 102
SWIDTH 480 0
DWIDTH 16 0
BBX 15 23 1 0
BITMAP
3FFE
3FFE
3FFE
3FFE
3E00
3E00
3E00
3E00
3E00
3E00
FFFC
FFFC
FFFC
FFFC
3E00
3E00
3E00
3E00
3E00
3E00
3E00
3E00
3E00
ENDCHAR
STARTCHAR 0067
ENCODING 103
SWIDTH 810 0
DWIDTH 27 0
BBX 26 25 1 -1
BITMAP
003F0000
01FFC000
07FFF000
0FFFF800
1FFFF800
3FC0F000
3F006000
7E000000
7C000000
7C000000
F80FFFC0
F80FFFC0
F80FFFC0
F80FFFC0
FC0FFFC0
7C001F00
7C003F00
7E003F00
3F007E00
1FC1FE00
1FFFFC00
0FFFF800
03FFF000
00FFC000
000C0000
ENDCHAR
STARTCHAR 0068
ENCODING 104
SWIDTH 570 0
DWIDTH 19 0
BBX 17 23 1 0
BITMAP
3E0F80
3E0F80
3E0F80
3E0F80
3E0F80
3E0F80
3E0F80
3E0F80
3E0F80
3E0F80
FFFF80
FFFF80
FFFF80
FFFF80
FFFF80
3E0F80
3E0F80
3E0F80
3E0F80
3E0F80
3E0F80
3E0F80
3E0F80
ENDCHAR
STARTCHAR 0069
ENCODING 105
SWIDTH 240 0
DWIDTH 8 0
BBX 10 26 -1 1
BITMAP
0400
0C00
1E00
FFC0
3F00
1F00
1F00
3300
2000
0000
0000
0000
1F00
1F00
1F00
1F00
1F00
1F00
1F00
1F00
1F00
1F00
1F00
1F00
1F00
1F00
ENDCHAR
STARTCHAR 006A
ENCODING 106
SWIDTH 480 0
DWIDTH 16 0
BBX 14 24 1 -1
BITMAP
03FC
03FC
03FC
03FC
00FC
00FC
00FC
00FC
00FC
00FC
00FC
00FC
00FC
00FC
00FC
00F8
00F8
10F8
79F8
FFF8
FFF0
7FE0
3FC0
0200
ENDCHAR
STARTCHAR 006B
ENCODING 107
SWIDTH 570 0
DWIDTH 19 0
BBX 17 23 1 0
BITMAP
3E1F00
3E1F00
3E1F00
3E1F00
3E1F00
3E1F00
3E3F00
3E3E00
3E7E00
FFFE00
FFFE00
FFFE00
FFFF00
3E3F00
3E1F80
3E0F80
3E0F80
3E0F80
3E0F80
3E0F80
3E0F80
3E0F80
3E0F80
ENDCHAR
STARTCHAR 006C
ENCODING 108
SWIDTH 450 0
DWIDTH 15 0
BBX 13 23 2 0
BITMAP
F800
F800
F800
F800
F800
F800
F800
F800
F800
F800
F800
F800
F800
F800
F800
F800
F800
F800
FFF8
FFF8
FFF8
FFF8
FFF8
ENDCHAR
STARTCHAR 006D
ENCODING 109
SWIDTH 870 0
DWIDTH 29 0
BBX 27 24 1 0
BITMAP
20080000
780E03E0
7C0F03E0
FE0F83E0
FF0FE3E0
3FCFF3E0
3FEFFBE0
3FFFFFE0
3FFFFFE0
3FFFFFE0
3E7F9FE0
3E3F8FE0
3E1F87E0
3E0F83E0
3E0F83E0
3E0F83E0
3E0F83E0
3E0F83E0
3E0F83E0
3E0F83E0
3E0F83E0
3E0F83E0
3E0F83E0
3E0F83E0
ENDCHAR
STARTCHAR 006E
ENCODING 110
SWIDTH 570 0
DWIDTH 19 0
BBX 17 24 1 0
BITMAP
200000
780F80
7C0F80
FE0F80
FF0F80
3FCF80
3FEF80
3FFF80
3FFF80
3FFF80
3EFF80
3E7F80
3E1F80
3E0F80
3E0F80
3E0F80
3E0F80
3E0F80
3E0F80
3E0F80
3E0F80
3E0F80
3E0F80
3E0F80
ENDCHAR
STARTCHAR 006F
ENCODING 111
SWIDTH 810 0
DWIDTH 27 0
BBX 25 25 1 -1
BITMAP
003F0000
01FFE000
07FFF000
0FFFFC00
1FFFFE00
3FC0FE00
3F003F00
7E001F00
7C001F80
7C000F80
F8000F80
F8000F80
F8000F80
F8000F80
FC000F80
7C000F80
7C001F80
7E003F00
3F007F00
1FE1FE00
1FFFFC00
0FFFF800
03FFF000
00FFC000
000C0000
ENDCHAR
STARTCHAR 0070
ENCODING 112
SWIDTH 570 0
DWIDTH 19 0
BBX 18 23 1 0
BITMAP
3FFC00
3FFF00
3FFF00
3FFF80
3E1FC0
3E07C0
3E07C0
3E07C0
3E07C0
3E0FC0
FFFF80
FFFF80
FFFF00
FFFC00
FFC000
3E0000
3E0000
3E0000
3E0000
3E0000
3E0000
3E0000
3E0000
ENDCHAR
STARTCHAR 0071
ENCODING 113
SWIDTH 810 0
DWIDTH 27 0
BBX 25 25 1 -1
BITMAP
003F0000
01FFE000
07FFF000
0FFFFC00
1FFFFE00
3FC0FE00
3F003F00
7E001F00
7C001F80
7C000F80
F8000F80
F8000F80
F8000F80
F8000F80
FC000F80
7C000F80
7C001F80
7E003F00
3F007F00
1FE1FE00
1FFFFE00
0FFFFF00
03FFFF00
00FFDE00
000C0C00
ENDCHAR
STARTCHAR 0072
ENCODING 114
SWIDTH 600 0
DWIDTH 20 0
BBX 19 23 1 0
BITMAP
3FFE00
3FFF00
3FFF80
3FFFC0
3E0FC0
3E07E0
3E03E0
3E03E0
3E07E0
3E0FC0
FFFFC0
FFFF80
FFFF00
FFFF80
3E1F80
3E0F80
3E07C0
3E07C0
3E07C0
3E07C0
3E07C0
3E07C0
3E07C0
ENDCHAR
STARTCHAR 0073
ENCODING 115
SWIDTH 510 0
DWIDTH 17 0
BBX 15 25 1 -1
BITMAP
07C0
1FF0
3FF8
7FFC
7FFC
7C7E
7C38
7C00
7E00
3F80
3FC0
1FF0
0FF8
03FC
01FE
007E
003E
183E
F83E
FE7E
7FFE
7FFC
3FF8
0FF0
0080
ENDCHAR
STARTCHAR 0074
ENCODING 116
SWIDTH 510 0
DWIDTH 17 0
BBX 16 23 1 0
BITMAP
FFFF
FFFF
FFFF
FFFF
07C0
07C0
07C0
07C0
07C0
07C0
07C0
07C0
07C0
07C0
07C0
07C0
07C0
07C0
07C0
07C0
07C0
07C0
07C0
ENDCHAR
STARTCHAR 0075
ENCODING 117
SWIDTH 540 0
DWIDTH 18 0
BBX 15 24 2 -1
BITMAP
F83E
F83E
F83E
F83E
F83E
F83E
F83E
F83E
F83E
F83E
F83E
F83E
F83E
F83E
F83E
F83E
F83E
F87C
FCFC
FFFC
7FF8
3FF0
1FE0
0100
ENDCHAR
STARTCHAR 0076
ENCODING 118
SWIDTH 480 0
DWIDTH 16 0
BBX 15 23 0 0
BITMAP
F83E
F83E
F83E
F83E
F83E
F83E
F83E
F83E
F83E
F83E
FC3E
7C3E
7C3E
7C3E
7C3E
7C7C
7E7C
3E7C
3EF8
1FF8
1FF0
0FF0
07E0
ENDCHAR
STARTCHAR 0077
ENCODING 119
SWIDTH 780 0
DWIDTH 26 0
BBX 25 23 0 0
BITMAP
F83E0F80
F83E0F80
F83E0F80
F83E0F80
F83E0F80
F83E0F80
F83E0F80
F83E0F80
F83E0F80
F83E0F80
FC3E0F80
7C3E0F80
7C3E0F80
7C3E1F80
7C3F1F00
7C7F1F00
7E7F1F00
3E7FBE00
3EFFBE00
1FFFFE00
1FF7FC00
0FF3F800
07E3F800
ENDCHAR
STARTCHAR 0078
ENCODING 120
SWIDTH 540 0
DWIDTH 18 0
BBX 15 23 2 0
BITMAP
F83E
F83E
F83E
F83E
F83E
F83E
F87E
FEFC
7FFC
7FF8
7FF8
7FFC
FCFC
F87E
F83E
F83E
F83E
F83E
F83E
F83E
F83E
F83E
F83E
ENDCHAR
STARTCHAR 0079
ENCODING 121
SWIDTH 510 0
DWIDTH 17 0
BBX 15 23 1 0
BITMAP
F83E
F83E
F83E
F83E
F83E
F83E
F83E
F83E
F83E
F83E
F83E
7C3E
7C3E
7FFE
3FFC
3FF8
0FF0
07C0
07C0
07C0
07C0
07C0
07C0
ENDCHAR
STARTCHAR 007A
ENCODING 122
SWIDTH 540 0
DWIDTH 18 0
BBX 16 23 1 0
BITMAP
FFFF
FFFF
FFFF
FFFE
007E
007C
00F8
01F8
01F0
03F0
03E0
07E0
07C0
0F80
1F80
1F00
3F00
3E00
7FFF
FFFF
FFFF
FFFF
FFFF
ENDCHAR
STARTCHAR 007B
ENCODING 123
SWIDTH 330 0
DWIDTH 11 0
BBX 8 33 2 -5
BITMAP
0F
1F
3F
3F
38
38
38
38
38
38
38
38
38
38
78
F8
F0
F0
F8
38
38
38
38
38
38
38
38
38
38
3C
3F
1F
0F
ENDCHAR
STARTCHAR 007C
ENCODING 124
SWIDTH 180 0
DWIDTH 6 0
BBX 2 28 2 -4
BITMAP
C0
C0
C0
C0
C0
C0
C0
C0
C0
C0
C0
C0
C0
C0
C0
C0
C0
C0
C0
C0
C0
C0
C0
C0
C0
C0
C0
C0
ENDCHAR
STARTCHAR 007D
ENCODING 125
SWIDTH 330 0
DWIDTH 11 0
BBX 8 33 2 -5
BITMAP
E0
F8
F8
F8
3C
3C
3C
3C
3C
3C
3C
3C
3C
3C
1E
1F
0F
1F
1E
3C
3C
3C
3C
3C
3C
3C
3C
3C
3C
3C
F8
F8
F0
ENDCHAR
STARTCHAR 007E
ENCODING 126
SWIDTH 540 0
DWIDTH 18 0
BBX 15 4 2 8
BITMAP
FF02
FFFE
FFFE
C7FE
ENDCHAR
STARTCHAR 00A1
ENCODING 161
SWIDTH 270 0
DWIDTH 9 0
BBX 6 24 2 -4
BITMAP
78
F8
FC
FC
78
20
00
00
F8
F8
F8
F8
F8
F8
F8
F8
F8
F8
F8
F8
F8
F8
F8
F8
ENDCHAR
STARTCHAR 00A2
ENCODING 162
SWIDTH 510 0
DWIDTH 17 0
BBX 13 21 2 1
BITMAP
0380
0380
03C0
0FF0
3FF8
7FF8
7C30
F800
F000
F000
F000
F000
F000
7800
7EF0
3FF8
1FF8
0FF0
0380
0380
0380
ENDCHAR
STARTCHAR 00A3
ENCODING 163
SWIDTH 570 0
DWIDTH 19 0
BBX 15 24 2 0
BITMAP
00FC
03FE
0FFE
1FFE
1FFE
3F82
3F00
3E00
3E00
3E00
3E00
FFF8
FFF8
FFF8
0F80
0F80
0F80
0F80
1F00
FF00
FFFE
FFFE
FFFE
FFFE
ENDCHAR
STARTCHAR 00A4
ENCODING 164
SWIDTH 600 0
DWIDTH 20 0
BBX 17 17 2 2
BITMAP
200200
73E700
FFFF80
7FFF00
3E3E00
380E00
780E00
700700
700700
700F00
780E00
3C1E00
3F7E00
7FFF00
FFFF80
718700
200200
ENDCHAR
STARTCHAR 00A5
ENCODING 165
SWIDTH 660 0
DWIDTH 22 0
BBX 19 23 2 0
BITMAP
FC07E0
7C0FC0
7E0FC0
3E0F80
3F1F80
1F1F00
1FBF00
0FBE00
0FFE00
07FC00
07FC00
3FFF00
3FFF00
3FFF00
3FFF00
01F000
3FFF00
3FFF00
3FFF00
01F000
01F000
01F000
01F000
ENDCHAR
STARTCHAR 00A6
ENCODING 166
SWIDTH 180 0
DWIDTH 6 0
BBX 2 28 2 -4
BITMAP
C0
C0
C0
C0
C0
C0
C0
C0
C0
C0
C0
00
00
00
00
00
00
C0
C0
C0
C0
C0
C0
C0
C0
C0
C0
C0
ENDCHAR
STARTCHAR 00A7
ENCODING 167
SWIDTH 480 0
DWIDTH 16 0
BBX 13 28 2 -4
BITMAP
0F80
3FE0
7FF0
7FF0
7FF8
78F0
7800
7E00
3F00
1FC0
3FE0
7FF0
FDF0
F0F8
F078
F8F0
7FF0
3FE0
1FC0
07E0
03F0
01F0
78F0
FDF0
7FF0
7FF0
3FE0
0F80
ENDCHAR
STARTCHAR 00A8
ENCODING 168
SWIDTH 420 0
DWIDTH 14 0
BBX 14 6 0 25
BITMAP
3010
787C
FCFC
FCFC
FC7C
7878
ENDCHAR
STARTCHAR 00A9
ENCODING 169
SWIDTH 840 0
DWIDTH 28 0
BBX 25 25 2 -1
BITMAP
007F0000
03FFC000
07C1F000
0E007800
1C001C00
38000E00
703E0600
60FF8700
E1FF0300
E1C20300
C3C00380
C3800380
C3800380
C3800380
C3C00380
E1E70300
61FF8700
70FF0700
701C0E00
38001C00
1C003C00
0F007800
07FFE000
01FFC000
00080000
ENDCHAR
STARTCHAR 00AB
ENCODING 171
SWIDTH 630 0
DWIDTH 21 0
BBX 18 15 2 3
BITMAP
07C7C0
078F80
0F0F00
1F1E00
3E3E00
3C7C00
787800
F8F000
F8F800
7C7800
3E3C00
1E3E00
1F1F00
0F8F00
07C780
ENDCHAR
STARTCHAR 00AC
ENCODING 172
SWIDTH 570 0
DWIDTH 19 0
BBX 16 10 2 3
BITMAP
FFFF
FFFF
FFFF
FFFF
000F
000F
000F
000F
000F
000F
ENDCHAR
STARTCHAR 00AE
ENCODING 174
SWIDTH 510 0
DWIDTH 17 0
BBX 14 13 2 11
BITMAP
0FC0
3CE0
6030
4798
C788
C488
8F8C
C588
C488
4498
6030
38E0
0FC0
ENDCHAR
STARTCHAR 00AF
ENCODING 175
SWIDTH 270 0
DWIDTH 9 0
BBX 10 3 0 26
BITMAP
FFC0
FFC0
FFC0
ENDCHAR
STARTCHAR 00B0
ENCODING 176
SWIDTH 360 0
DWIDTH 12 0
BBX 8 8 2 16
BITMAP
3C
7E
E7
C3
C3
C3
7E
3C
ENDCHAR
STARTCHAR 00B1
ENCODING 177
SWIDTH 570 0
DWIDTH 19 0
BBX 16 15 2 3
BITMAP
03C0
03C0
03C0
FFFF
FFFF
FFFF
FFFF
03C0
03C0
03C0
0000
0000
FFFF
FFFF
FFFF
ENDCHAR
STARTCHAR 00B4
ENCODING 180
SWIDTH 150 0
DWIDTH 5 0
BBX 5 4 0 26
BITMAP
38
78
70
E0
ENDCHAR
STARTCHAR 00B6
ENCODING 182
SWIDTH 540 0
DWIDTH 18 0
BBX 14 28 2 -4
BITMAP
038C
1F8C
3F8C
7F8C
FF8C
FF8C
FF8C
FF8C
FF8C
FF8C
7F8C
7F8C
3F8C
0F8C
018C
018C
018C
018C
018C
018C
018C
018C
018C
018C
018C
018C
018C
018C
ENDCHAR
STARTCHAR 00B7
ENCODING 183
SWIDTH 270 0
DWIDTH 9 0
BBX 6 6 2 6
BITMAP
70
F8
FC
FC
F8
70
ENDCHAR
STARTCHAR 00B8
ENCODING 184
SWIDTH 210 0
DWIDTH 7 0
BBX 8 7 0 -7
BITMAP
0C
0C
0E
07
67
FE
7E
ENDCHAR
STARTCHAR 00BB
ENCODING 187
SWIDTH 630 0
DWIDTH 21 0
BBX 17 15 2 3
BITMAP
F8F000
78F800
7C7C00
3E3C00
1F1E00
0F1F00
0F8F80
07C780
07C780
0F8F00
0F1F00
1E3E00
3C3C00
7C7800
F8F000
ENDCHAR
STARTCHAR 00BF
ENCODING 191
SWIDTH 450 0
DWIDTH 15 0
BBX 11 24 2 -3
BITMAP
0F80
0F80
0F80
0F80
0F00
0000
0000
0000
0F00
0F00
0F00
0F00
1F00
3E00
3C00
7C00
F800
F800
F080
F9E0
FFE0
7FC0
3FC0
0F00
ENDCHAR
STARTCHAR 00C0
ENCODING 192
SWIDTH 570 0
DWIDTH 19 0
BBX 17 30 2 0
BITMAP
1E0000
0E0000
070000
070000
000000
000000
078000
1FF000
3FF800
7FF800
FFFC00
FC7C00
F87E00
F83E00
F83E00
F83E00
F83E00
F83E00
F83E00
F83E00
F83E00
F83E00
F83E00
F83E00
F83E00
FFFF80
FFFF80
FFFF80
FFFF80
FFFF80
ENDCHAR
STARTCHAR 00C1
ENCODING 193
SWIDTH 570 0
DWIDTH 19 0
BBX 17 30 2 0
BITMAP
00E000
01C000
01C000
038000
000000
000000
078000
1FF000
3FF800
7FF800
FFFC00
FC7C00
F87E00
F83E00
F83E00
F83E00
F83E00
F83E00
F83E00
F83E00
F83E00
F83E00
F83E00
F83E00
F83E00
FFFF80
FFFF80
FFFF80
FFFF80
FFFF80
ENDCHAR
STARTCHAR 00C2
ENCODING 194
SWIDTH 570 0
DWIDTH 19 0
BBX 17 30 2 0
BITMAP
030000
078000
07C000
0FE000
000000
000000
078000
1FF000
3FF800
7FF800
FFFC00
FC7C00
F87E00
F83E00
F83E00
F83E00
F83E00
F83E00
F83E00
F83E00
F83E00
F83E00
F83E00
F83E00
F83E00
FFFF80
FFFF80
FFFF80
FFFF80
FFFF80
ENDCHAR
STARTCHAR 00C3
ENCODING 195
SWIDTH 570 0
DWIDTH 19 0
BBX 17 30 2 0
BITMAP
1E2000
1FE000
1FE000
01C000
000000
000000
078000
1FF000
3FF800
7FF800
FFFC00
FC7C00
F87E00
F83E00
F83E00
F83E00
F83E00
F83E00
F83E00
F83E00
F83E00
F83E00
F83E00
F83E00
F83E00
FFFF80
FFFF80
FFFF80
FFFF80
FFFF80
ENDCHAR
STARTCHAR 00C4
ENCODING 196
SWIDTH 570 0
DWIDTH 19 0
BBX 17 31 2 0
BITMAP
101000
7C7C00
FC7C00
FC7C00
7C7C00
783800
000000
078000
1FF000
3FF800
7FF800
FFFC00
FC7C00
F87E00
F83E00
F83E00
F83E00
F83E00
F83E00
F83E00
F83E00
F83E00
F83E00
F83E00
F83E00
F83E00
FFFF80
FFFF80
FFFF80
FFFF80
FFFF80
ENDCHAR
STARTCHAR 00C5
ENCODING 197
SWIDTH 570 0
DWIDTH 19 0
BBX 17 32 2 0
BITMAP
078000
0FC000
0CE000
0C6000
0EC000
0FC000
038000
000000
078000
1FF000
3FF800
7FF800
FFFC00
FC7C00
F87E00
F83E00
F83E00
F83E00
F83E00
F83E00
F83E00
F83E00
F83E00
F83E00
F83E00
F83E00
F83E00
FFFF80
FFFF80
FFFF80
FFFF80
FFFF80
ENDCHAR
STARTCHAR 00C7
ENCODING 199
SWIDTH 690 0
DWIDTH 23 0
BBX 21 31 1 -7
BITMAP
003F00
01FFC0
07FFF0
0FFFF8
1FFFF8
3FC0F0
3F0060
7E0000
7C0000
7C0000
F80000
F80000
F80000
F80000
FC0000
7C0000
7C0000
7E0000
3F0060
3FE1F0
1FFFF8
0FFFF8
03FFF0
00FFC0
001C00
001800
003C00
000E00
00CE00
01FC00
00FC00
ENDCHAR
STARTCHAR 00C8
ENCODING 200
SWIDTH 510 0
DWIDTH 17 0
BBX 16 30 1 0
BITMAP
1E00
0E00
0F00
0700
0000
0000
0000
3FF0
3FF0
3FF0
3FF0
3E00
3E00
3E00
3E00
3E00
FFF8
FFF8
FFF8
FFF8
3E00
3E00
3E00
3E00
3E00
3FFF
3FFF
3FFF
3FFF
3FFF
ENDCHAR
STARTCHAR 00C9
ENCODING 201
SWIDTH 510 0
DWIDTH 17 0
BBX 16 30 1 0
BITMAP
01E0
01C0
03C0
0380
0000
0000
0000
3FF0
3FF0
3FF0
3FF0
3E00
3E00
3E00
3E00
3E00
FFF8
FFF8
FFF8
FFF8
3E00
3E00
3E00
3E00
3E00
3FFF
3FFF
3FFF
3FFF
3FFF
ENDCHAR
STARTCHAR 00CA
ENCODING 202
SWIDTH 510 0
DWIDTH 17 0
BBX 16 30 1 0
BITMAP
0300
0780
0FC0
0FC0
1020
0000
0000
3FF0
3FF0
3FF0
3FF0
3E00
3E00
3E00
3E00
3E00
FFF8
FFF8
FFF8
FFF8
3E00
3E00
3E00
3E00
3E00
3FFF
3FFF
3FFF
3FFF
3FFF
ENDCHAR
STARTCHAR 00CB
ENCODING 203
SWIDTH 510 0
DWIDTH 17 0
BBX 16 31 1 0
BITMAP
3010
787C
FCFC
FCFC
FC7C
7878
0000
0000
3FF0
3FF0
3FF0
3FF0
3E00
3E00
3E00
3E00
3E00
FFF8
FFF8
FFF8
FFF8
3E00
3E00
3E00
3E00
3E00
3FFF
3FFF
3FFF
3FFF
3FFF
ENDCHAR
STARTCHAR 00CC
ENCODING 204
SWIDTH 240 0
DWIDTH 8 0
BBX 6 21 1 0
BITMAP
E0
E0
70
70
00
00
00
7C
7C
7C
7C
7C
7C
7C
7C
7C
7C
7C
7C
7C
7C
ENDCHAR
STARTCHAR 00CD
ENCODING 205
SWIDTH 240 0
DWIDTH 8 0
BBX 6 21 2 0
BITMAP
1C
3C
38
70
00
00
00
F8
F8
F8
F8
F8
F8
F8
F8
F8
F8
F8
F8
F8
F8
ENDCHAR
STARTCHAR 00CE
ENCODING 206
SWIDTH 240 0
DWIDTH 8 0
BBX 7 21 1 0
BITMAP
10
38
7C
FE
00
00
00
7C
7C
7C
7C
7C
7C
7C
7C
7C
7C
7C
7C
7C
7C
ENDCHAR
STARTCHAR 00CF
ENCODING 207
SWIDTH 240 0
DWIDTH 8 0
BBX 14 22 -2 0
BITMAP
2020
F8F8
F8F8
F8FC
F8F8
7078
0000
0000
0F80
0F80
0F80
0F80
0F80
0F80
0F80
0F80
0F80
0F80
0F80
0F80
0F80
0F80
ENDCHAR
STARTCHAR 00D1
ENCODING 209
SWIDTH 570 0
DWIDTH 19 0
BBX 17 30 1 0
BITMAP
070000
0FF000
0FF000
00F000
000000
000000
200000
780F80
7C0F80
FE0F80
FF0F80
3FCF80
3FEF80
3FFF80
3FFF80
3FFF80
3EFF80
3E7F80
3E1F80
3E0F80
3E0F80
3E0F80
3E0F80
3E0F80
3E0F80
3E0F80
3E0F80
3E0F80
3E0F80
3E0F80
ENDCHAR
STARTCHAR 00D2
ENCODING 210
SWIDTH 810 0
DWIDTH 27 0
BBX 25 31 1 -1
BITMAP
00700000
00380000
00380000
001C0000
00000000
00000000
003F0000
01FFE000
07FFF000
0FFFFC00
1FFFFE00
3FC0FE00
3F003F00
7E001F00
7C001F80
7C000F80
F8000F80
F8000F80
F8000F80
F8000F80
FC000F80
7C000F80
7C001F80
7E003F00
3F007F00
1FE1FE00
1FFFFC00
0FFFF800
03FFF000
00FFC000
000C0000
ENDCHAR
STARTCHAR 00D3
ENCODING 211
SWIDTH 810 0
DWIDTH 27 0
BBX 25 31 1 -1
BITMAP
00078000
00070000
000E0000
000E0000
00000000
00000000
003F0000
01FFE000
07FFF000
0FFFFC00
1FFFFE00
3FC0FE00
3F003F00
7E001F00
7C001F80
7C000F80
F8000F80
F8000F80
F8000F80
F8000F80
FC000F80
7C000F80
7C001F80
7E003F00
3F007F00
1FE1FE00
1FFFFC00
0FFFF800
03FFF000
00FFC000
000C0000
ENDCHAR
STARTCHAR 00D4
ENCODING 212
SWIDTH 810 0
DWIDTH 27 0
BBX 25 31 1 -1
BITMAP
000C0000
001E0000
003E0000
007F0000
00000000
00000000
003F0000
01FFE000
07FFF000
0FFFFC00
1FFFFE00
3FC0FE00
3F003F00
7E001F00
7C001F80
7C000F80
F8000F80
F8000F80
F8000F80
F8000F80
FC000F80
7C000F80
7C001F80
7E003F00
3F007F00
1FE1FE00
1FFFFC00
0FFFF800
03FFF000
00FFC000
000C0000
ENDCHAR
STARTCHAR 00D5
ENCODING 213
SWIDTH 810 0
DWIDTH 27 0
BBX 25 31 1 -1
BITMAP
00700000
00FF0000
00FF0000
000F0000
00000000
00000000
003F0000
01FFE000
07FFF000
0FFFFC00
1FFFFE00
3FC0FE00
3F003F00
7E001F00
7C001F80
7C000F80
F8000F80
F8000F80
F8000F80
F8000F80
FC000F80
7C000F80
7C001F80
7E003F00
3F007F00
1FE1FE00
1FFFFC00
0FFFF800
03FFF000
00FFC000
000C0000
ENDCHAR
STARTCHAR 00D6
ENCODING 214
SWIDTH 810 0
DWIDTH 27 0
BBX 25 31 1 0
BITMAP
01E1E000
03F3F000
03F3F000
03F3F000
01E1E000
00000000
003F0000
01FFE000
07FFF000
0FFFFC00
1FFFFE00
3FC0FE00
3F003F00
7E001F00
7C001F80
7C000F80
F8000F80
F8000F80
F8000F80
F8000F80
FC000F80
7C000F80
7C001F80
7E003F00
3F007F00
1FE1FE00
1FFFFC00
0FFFF800
03FFF000
00FFC000
000C0000
ENDCHAR
STARTCHAR 00D7
ENCODING 215
SWIDTH 540 0
DWIDTH 18 0
BBX 15 14 2 4
BITMAP
3018
783C
FC7C
7EF8
3FF0
1FE0
0FC0
0FE0
1FF0
3FF8
7CFC
F87E
703C
2018
ENDCHAR
STARTCHAR 00D8
ENCODING 216
SWIDTH 780 0
DWIDTH 26 0
BBX 25 26 1 -1
BITMAP
00000400
007E0E00
01FFCF00
07FFFE00
0FFFFC00
1FFFFC00
3F80FE00
7F01FF00
7E03FF00
FC03DF00
F8079F80
F80F0F80
F81E0F80
F83C0F80
F87C0F80
F8F80F80
FDF01F80
7DE01F00
7FC03F00
3F807E00
3FC1FE00
1FFFFC00
3FFFF800
7FFFF000
79FFC000
30000000
ENDCHAR
STARTCHAR 00D9
ENCODING 217
SWIDTH 540 0
DWIDTH 18 0
BBX 15 31 2 -1
BITMAP
1E00
0E00
0700
0700
0000
0000
0000
F83E
F83E
F83E
F83E
F83E
F83E
F83E
F83E
F83E
F83E
F83E
F83E
F83E
F83E
F83E
F83E
F83E
F87C
FCFC
FFFC
7FF8
3FF0
1FE0
0100
ENDCHAR
STARTCHAR 00DA
ENCODING 218
SWIDTH 540 0
DWIDTH 18 0
BBX 15 31 2 -1
BITMAP
01E0
01C0
01C0
0380
0000
0000
0000
F83E
F83E
F83E
F83E
F83E
F83E
F83E
F83E
F83E
F83E
F83E
F83E
F83E
F83E
F83E
F83E
F83E
F87C
FCFC
FFFC
7FF8
3FF0
1FE0
0100
ENDCHAR
STARTCHAR 00DB
ENCODING 219
SWIDTH 540 0
DWIDTH 18 0
BBX 15 31 2 -1
BITMAP
0300
0780
07C0
0FE0
1000
0000
0000
F83E
F83E
F83E
F83E
F83E
F83E
F83E
F83E
F83E
F83E
F83E
F83E
F83E
F83E
F83E
F83E
F83E
F87C
FCFC
FFFC
7FF8
3FF0
1FE0
0100
ENDCHAR
STARTCHAR 00DC
ENCODING 220
SWIDTH 540 0
DWIDTH 18 0
BBX 15 32 2 -1
BITMAP
0010
787C
FC7C
FCFC
7C7C
7838
0000
0000
F83E
F83E
F83E
F83E
F83E
F83E
F83E
F83E
F83E
F83E
F83E
F83E
F83E
F83E
F83E
F83E
F83E
F87C
FCFC
FFFC
7FF8
3FF0
1FE0
0100
ENDCHAR
STARTCHAR 00DD
ENCODING 221
SWIDTH 510 0
DWIDTH 17 0
BBX 15 30 1 0
BITMAP
00F0
00E0
01C0
01C0
0000
0000
0000
F83E
F83E
F83E
F83E
F83E
F83E
F83E
F83E
F83E
F83E
F83E
7C3E
7C3E
7FFE
3FFC
3FF8
0FF0
07C0
07C0
07C0
07C0
07C0
07C0
ENDCHAR
STARTCHAR 00E0
ENCODING 224
SWIDTH 570 0
DWIDTH 19 0
BBX 17 30 2 0
BITMAP
1E0000
0E0000
070000
070000
000000
000000
078000
1FF000
3FF800
7FF800
FFFC00
FC7C00
F87E00
F83E00
F83E00
F83E00
F83E00
F83E00
F83E00
F83E00
F83E00
F83E00
F83E00
F83E00
F83E00
FFFF80
FFFF80
FFFF80
FFFF80
FFFF80
ENDCHAR
STARTCHAR 00E1
ENCODING 225
SWIDTH 570 0
DWIDTH 19 0
BBX 17 30 2 0
BITMAP
00E000
01C000
01C000
038000
000000
000000
078000
1FF000
3FF800
7FF800
FFFC00
FC7C00
F87E00
F83E00
F83E00
F83E00
F83E00
F83E00
F83E00
F83E00
F83E00
F83E00
F83E00
F83E00
F83E00
FFFF80
FFFF80
FFFF80
FFFF80
FFFF80
ENDCHAR
STARTCHAR 00E2
ENCODING 226
SWIDTH 570 0
DWIDTH 19 0
BBX 17 30 2 0
BITMAP
030000
078000
07C000
0FE000
000000
000000
078000
1FF000
3FF800
7FF800
FFFC00
FC7C00
F87E00
F83E00
F83E00
F83E00
F83E00
F83E00
F83E00
F83E00
F83E00
F83E00
F83E00
F83E00
F83E00
FFFF80
FFFF80
FFFF80
FFFF80
FFFF80
ENDCHAR
STARTCHAR 00E3
ENCODING 227
SWIDTH 570 0
DWIDTH 19 0
BBX 17 30 2 0
BITMAP
1E2000
1FE000
1FE000
01C000
000000
000000
078000
1FF000
3FF800
7FF800
FFFC00
FC7C00
F87E00
F83E00
F83E00
F83E00
F83E00
F83E00
F83E00
F83E00
F83E00
F83E00
F83E00
F83E00
F83E00
FFFF80
FFFF80
FFFF80
FFFF80
FFFF80
ENDCHAR
STARTCHAR 00E4
ENCODING 228
SWIDTH 570 0
DWIDTH 19 0
BBX 17 31 2 0
BITMAP
101000
7C7C00
FC7C00
FC7C00
7C7C00
783800
000000
078000
1FF000
3FF800
7FF800
FFFC00
FC7C00
F87E00
F83E00
F83E00
F83E00
F83E00
F83E00
F83E00
F83E00
F83E00
F83E00
F83E00
F83E00
F83E00
FFFF80
FFFF80
FFFF80
FFFF80
FFFF80
ENDCHAR
STARTCHAR 00E5
ENCODING 229
SWIDTH 570 0
DWIDTH 19 0
BBX 17 32 2 0
BITMAP
078000
0FC000
0CE000
0C6000
0EC000
0FC000
038000
000000
078000
1FF000
3FF800
7FF800
FFFC00
FC7C00
F87E00
F83E00
F83E00
F83E00
F83E00
F83E00
F83E00
F83E00
F83E00
F83E00
F83E00
F83E00
F83E00
FFFF80
FFFF80
FFFF80
FFFF80
FFFF80
ENDCHAR
STARTCHAR 00E7
ENCODING 231
SWIDTH 690 0
DWIDTH 23 0
BBX 21 31 1 -7
BITMAP
003F00
01FFC0
07FFF0
0FFFF8
1FFFF8
3FC0F0
3F0060
7E0000
7C0000
7C0000
F80000
F80000
F80000
F80000
FC0000
7C0000
7C0000
7E0000
3F0060
3FE1F0
1FFFF8
0FFFF8
03FFF0
00FFC0
001C00
001800
003C00
000E00
00CE00
01FC00
00FC00
ENDCHAR
STARTCHAR 00E8
ENCODING 232
SWIDTH 510 0
DWIDTH 17 0
BBX 16 30 1 0
BITMAP
1E00
0E00
0F00
0700
0000
0000
0000
3FF0
3FF0
3FF0
3FF0
3E00
3E00
3E00
3E00
3E00
FFF8
FFF8
FFF8
FFF8
3E00
3E00
3E00
3E00
3E00
3FFF
3FFF
3FFF
3FFF
3FFF
ENDCHAR
STARTCHAR 00E9
ENCODING 233
SWIDTH 510 0
DWIDTH 17 0
BBX 16 30 1 0
BITMAP
01E0
01C0
03C0
0380
0000
0000
0000
3FF0
3FF0
3FF0
3FF0
3E00
3E00
3E00
3E00
3E00
FFF8
FFF8
FFF8
FFF8
3E00
3E00
3E00
3E00
3E00
3FFF
3FFF
3FFF
3FFF
3FFF
ENDCHAR
STARTCHAR 00EA
ENCODING 234
SWIDTH 510 0
DWIDTH 17 0
BBX 16 30 1 0
BITMAP
0300
0780
0FC0
0FC0
1020
0000
0000
3FF0
3FF0
3FF0
3FF0
3E00
3E00
3E00
3E00
3E00
FFF8
FFF8
FFF8
FFF8
3E00
3E00
3E00
3E00
3E00
3FFF
3FFF
3FFF
3FFF
3FFF
ENDCHAR
STARTCHAR 00EB
ENCODING 235
SWIDTH 510 0
DWIDTH 17 0
BBX 16 31 1 0
BITMAP
3010
787C
FCFC
FCFC
FC7C
7878
0000
0000
3FF0
3FF0
3FF0
3FF0
3E00
3E00
3E00
3E00
3E00
FFF8
FFF8
FFF8
FFF8
3E00
3E00
3E00
3E00
3E00
3FFF
3FFF
3FFF
3FFF
3FFF
ENDCHAR
STARTCHAR 00EC
ENCODING 236
SWIDTH 240 0
DWIDTH 8 0
BBX 6 21 1 0
BITMAP
E0
E0
70
70
00
00
00
7C
7C
7C
7C
7C
7C
7C
7C
7C
7C
7C
7C
7C
7C
ENDCHAR
STARTCHAR 00ED
ENCODING 237
SWIDTH 240 0
DWIDTH 8 0
BBX 6 21 2 0
BITMAP
1C
3C
38
70
00
00
00
F8
F8
F8
F8
F8
F8
F8
F8
F8
F8
F8
F8
F8
F8
ENDCHAR
STARTCHAR 00EE
ENCODING 238
SWIDTH 240 0
DWIDTH 8 0
BBX 7 21 1 0
BITMAP
10
38
7C
FE
00
00
00
7C
7C
7C
7C
7C
7C
7C
7C
7C
7C
7C
7C
7C
7C
ENDCHAR
STARTCHAR 00EF
ENCODING 239
SWIDTH 240 0
DWIDTH 8 0
BBX 14 22 -2 0
BITMAP
2020
F8F8
F8F8
F8FC
F8F8
7078
0000
0000
0F80
0F80
0F80
0F80
0F80
0F80
0F80
0F80
0F80
0F80
0F80
0F80
0F80
0F80
ENDCHAR
STARTCHAR 00F1
ENCODING 241
SWIDTH 570 0
DWIDTH 19 0
BBX 17 30 1 0
BITMAP
070000
0FF000
0FF000
00F000
000000
000000
200000
780F80
7C0F80
FE0F80
FF0F80
3FCF80
3FEF80
3FFF80
3FFF80
3FFF80
3EFF80
3E7F80
3E1F80
3E0F80
3E0F80
3E0F80
3E0F80
3E0F80
3E0F80
3E0F80
3E0F80
3E0F80
3E0F80
3E0F80
ENDCHAR
STARTCHAR 00F2
ENCODING 242
SWIDTH 810 0
DWIDTH 27 0
BBX 25 31 1 -1
BITMAP
00700000
00380000
00380000
001C0000
00000000
00000000
003F0000
01FFE000
07FFF000
0FFFFC00
1FFFFE00
3FC0FE00
3F003F00
7E001F00
7C001F80
7C000F80
F8000F80
F8000F80
F8000F80
F8000F80
FC000F80
7C000F80
7C001F80
7E003F00
3F007F00
1FE1FE00
1FFFFC00
0FFFF800
03FFF000
00FFC000
000C0000
ENDCHAR
STARTCHAR 00F3
ENCODING 243
SWIDTH 810 0
DWIDTH 27 0
BBX 25 31 1 -1
BITMAP
00078000
00070000
000E0000
000E0000
00000000
00000000
003F0000
01FFE000
07FFF000
0FFFFC00
1FFFFE00
3FC0FE00
3F003F00
7E001F00
7C001F80
7C000F80
F8000F80
F8000F80
F8000F80
F8000F80
FC000F80
7C000F80
7C001F80
7E003F00
3F007F00
1FE1FE00
1FFFFC00
0FFFF800
03FFF000
00FFC000
000C0000
ENDCHAR
STARTCHAR 00F4
ENCODING 244
SWIDTH 810 0
DWIDTH 27 0
BBX 25 31 1 -1
BITMAP
000C0000
001E0000
003E0000
007F0000
00000000
00000000
003F0000
01FFE000
07FFF000
0FFFFC00
1FFFFE00
3FC0FE00
3F003F00
7E001F00
7C001F80
7C000F80
F8000F80
F8000F80
F8000F80
F8000F80
FC000F80
7C000F80
7C001F80
7E003F00
3F007F00
1FE1FE00
1FFFFC00
0FFFF800
03FFF000
00FFC000
000C0000
ENDCHAR
STARTCHAR 00F5
ENCODING 245
SWIDTH 810 0
DWIDTH 27 0
BBX 25 31 1 -1
BITMAP
00700000
00FF0000
00FF0000
000F0000
00000000
00000000
003F0000
01FFE000
07FFF000
0FFFFC00
1FFFFE00
3FC0FE00
3F003F00
7E001F00
7C001F80
7C000F80
F8000F80
F8000F80
F8000F80
F8000F80
FC000F80
7C000F80
7C001F80
7E003F00
3F007F00
1FE1FE00
1FFFFC00
0FFFF800
03FFF000
00FFC000
000C0000
ENDCHAR
STARTCHAR 00F6
ENCODING 246
SWIDTH 810 0
DWIDTH 27 0
BBX 25 31 1 0
BITMAP
01E1E000
03F3F000
03F3F000
03F3F000
01E1E000
00000000
003F0000
01FFE000
07FFF000
0FFFFC00
1FFFFE00
3FC0FE00
3F003F00
7E001F00
7C001F80
7C000F80
F8000F80
F8000F80
F8000F80
F8000F80
FC000F80
7C000F80
7C001F80
7E003F00
3F007F00
1FE1FE00
1FFFFC00
0FFFF800
03FFF000
00FFC000
000C0000
ENDCHAR
STARTCHAR 00F7
ENCODING 247
SWIDTH 570 0
DWIDTH 19 0
BBX 16 17 2 2
BITMAP
0380
07C0
07C0
03C0
0180
0000
FFFF
FFFF
FFFF
FFFF
0000
0000
0380
07C0
07C0
03C0
0180
ENDCHAR
STARTCHAR 00F8
ENCODING 248
SWIDTH 780 0
DWIDTH 26 0
BBX 25 26 1 -1
BITMAP
00000400
007E0E00
01FFCF00
07FFFE00
0FFFFC00
1FFFFC00
3F80FE00
7F01FF00
7E03FF00
FC03DF00
F8079F80
F80F0F80
F81E0F80
F83C0F80
F87C0F80
F8F80F80
FDF01F80
7DE01F00
7FC03F00
3F807E00
3FC1FE00
1FFFFC00
3FFFF800
7FFFF000
79FFC000
30000000
ENDCHAR
STARTCHAR 00F9
ENCODING 249
SWIDTH 540 0
DWIDTH 18 0
BBX 15 31 2 -1
BITMAP
1E00
0E00
0700
0700
0000
0000
0000
F83E
F83E
F83E
F83E
F83E
F83E
F83E
F83E
F83E
F83E
F83E
F83E
F83E
F83E
F83E
F83E
F83E
F87C
FCFC
FFFC
7FF8
3FF0
1FE0
0100
ENDCHAR
STARTCHAR 00FA
ENCODING 250
SWIDTH 540 0
DWIDTH 18 0
BBX 15 31 2 -1
BITMAP
01E0
01C0
01C0
0380
0000
0000
0000
F83E
F83E
F83E
F83E
F83E
F83E
F83E
F83E
F83E
F83E
F83E
F83E
F83E
F83E
F83E
F83E
F83E
F87C
FCFC
FFFC
7FF8
3FF0
1FE0
0100
ENDCHAR
STARTCHAR 00FB
ENCODING 251
SWIDTH 540 0
DWIDTH 18 0
BBX 15 31 2 -1
BITMAP
0300
0780
07C0
0FE0
1000
0000
0000
F83E
F83E
F83E
F83E
F83E
F83E
F83E
F83E
F83E
F83E
F83E
F83E
F83E
F83E
F83E
F83E
F83E
F87C
FCFC
FFFC
7FF8
3FF0
1FE0
0100
ENDCHAR
STARTCHAR 00FC
ENCODING 252
SWIDTH 540 0
DWIDTH 18 0
BBX 15 32 2 -1
BITMAP
0010
787C
FC7C
FCFC
7C7C
7838
0000
0000
F83E
F83E
F83E
F83E
F83E
F83E
F83E
F83E
F83E
F83E
F83E
F83E
F83E
F83E
F83E
F83E
F83E
F87C
FCFC
FFFC
7FF8
3FF0
1FE0
0100
ENDCHAR
STARTCHAR 00FD
ENCODING 253
SWIDTH 510 0
DWIDTH 17 0
BBX 15 30 1 0
BITMAP
00F0
00E0
01C0
01C0
0000
0000
0000
F83E
F83E
F83E
F83E
F83E
F83E
F83E
F83E
F83E
F83E
F83E
7C3E
7C3E
7FFE
3FFC
3FF8
0FF0
07C0
07C0
07C0
07C0
07C0
07C0
ENDCHAR
STARTCHAR 00FF
ENCODING 255
SWIDTH 510 0
DWIDTH 17 0
BBX 15 31 1 0
BITMAP
1808
3C3C
7E7E
7E7E
7E3E
3C3C
0000
0000
F83E
F83E
F83E
F83E
F83E
F83E
F83E
F83E
F83E
F83E
F83E
7C3E
7C3E
7FFE
3FFC
3FF8
0FF0
07C0
07C0
07C0
07C0
07C0
07C0
ENDCHAR
STARTCHAR 0100
ENCODING 256
SWIDTH 570 0
DWIDTH 19 0
BBX 17 29 2 0
BITMAP
3FF000
3FF000
3FF000
000000
000000
078000
1FF000
3FF800
7FF800
FFFC00
FC7C00
F87E00
F83E00
F83E00
F83E00
F83E00
F83E00
F83E00
F83E00
F83E00
F83E00
F83E00
F83E00
F83E00
FFFF80
FFFF80
FFFF80
FFFF80
FFFF80
ENDCHAR
STARTCHAR 0101
ENCODING 257
SWIDTH 570 0
DWIDTH 19 0
BBX 17 29 2 0
BITMAP
3FF000
3FF000
3FF000
000000
000000
078000
1FF000
3FF800
7FF800
FFFC00
FC7C00
F87E00
F83E00
F83E00
F83E00
F83E00
F83E00
F83E00
F83E00
F83E00
F83E00
F83E00
F83E00
F83E00
FFFF80
FFFF80
FFFF80
FFFF80
FFFF80
ENDCHAR
STARTCHAR 0102
ENCODING 258
SWIDTH 570 0
DWIDTH 19 0
BBX 17 29 2 0
BITMAP
0FE000
0FE000
07C000
010000
000000
078000
1FF000
3FF800
7FF800
FFFC00
FC7C00
F87E00
F83E00
F83E00
F83E00
F83E00
F83E00
F83E00
F83E00
F83E00
F83E00
F83E00
F83E00
F83E00
FFFF80
FFFF80
FFFF80
FFFF80
FFFF80
ENDCHAR
STARTCHAR 0103
ENCODING 259
SWIDTH 570 0
DWIDTH 19 0
BBX 17 29 2 0
BITMAP
0FE000
0FE000
07C000
010000
000000
078000
1FF000
3FF800
7FF800
FFFC00
FC7C00
F87E00
F83E00
F83E00
F83E00
F83E00
F83E00
F83E00
F83E00
F83E00
F83E00
F83E00
F83E00
F83E00
FFFF80
FFFF80
FFFF80
FFFF80
FFFF80
ENDCHAR
STARTCHAR 0104
ENCODING 260
SWIDTH 570 0
DWIDTH 19 0
BBX 18 31 2 -7
BITMAP
078000
1FF000
3FF800
7FF800
FFFC00
FC7C00
F87E00
F83E00
F83E00
F83E00
F83E00
F83E00
F83E00
F83E00
F83E00
F83E00
F83E00
F83E00
F83E00
FFFF80
FFFF80
FFFF80
FFFF80
FFFF80
000E00
001C00
001800
001880
001FC0
001FC0
000700
ENDCHAR
STARTCHAR 0105
ENCODING 261
SWIDTH 570 0
DWIDTH 19 0
BBX 18 31 2 -7
BITMAP
078000
1FF000
3FF800
7FF800
FFFC00
FC7C00
F87E00
F83E00
F83E00
F83E00
F83E00
F83E00
F83E00
F83E00
F83E00
F83E00
F83E00
F83E00
F83E00
FFFF80
FFFF80
FFFF80
FFFF80
FFFF80
000E00
001C00
001800
001880
001FC0
001FC0
000700
ENDCHAR
STARTCHAR 0106
ENCODING 262
SWIDTH 690 0
DWIDTH 23 0
BBX 21 31 1 -1
BITMAP
000700
000F00
000E00
000C00
000000
000000
003F00
01FFC0
07FFF0
0FFFF8
1FFFF8
3FC0F0
3F0060
7E0000
7C0000
7C0000
F80000
F80000
F80000
F80000
FC0000
7C0000
7C0000
7E0000
3F0060
3FE1F0
1FFFF8
0FFFF8
03FFE0
00FFC0
000C00
ENDCHAR
STARTCHAR 0107
ENCODING 263
SWIDTH 690 0
DWIDTH 23 0
BBX 21 31 1 -1
BITMAP
000700
000F00
000E00
000C00
000000
000000
003F00
01FFC0
07FFF0
0FFFF8
1FFFF8
3FC0F0
3F0060
7E0000
7C0000
7C0000
F80000
F80000
F80000
F80000
FC0000
7C0000
7C0000
7E0000
3F0060
3FE1F0
1FFFF8
0FFFF8
03FFE0
00FFC0
000C00
ENDCHAR
STARTCHAR 010A
ENCODING 266
SWIDTH 690 0
DWIDTH 23 0
BBX 21 32 1 -1
BITMAP
001C00
003E00
003F00
003E00
003E00
000800
000000
003F00
01FFC0
07FFF0
0FFFF8
1FFFF8
3FC0F0
3F0060
7E0000
7C0000
7C0000
F80000
F80000
F80000
F80000
FC0000
7C0000
7C0000
7E0000
3F0060
3FE1F0
1FFFF8
0FFFF8
03FFE0
00FFC0
000C00
ENDCHAR
STARTCHAR 010B
ENCODING 267
SWIDTH 690 0
DWIDTH 23 0
BBX 21 32 1 -1
BITMAP
001C00
003E00
003F00
003E00
003E00
000800
000000
003F00
01FFC0
07FFF0
0FFFF8
1FFFF8
3FC0F0
3F0060
7E0000
7C0000
7C0000
F80000
F80000
F80000
F80000
FC0000
7C0000
7C0000
7E0000
3F0060
3FE1F0
1FFFF8
0FFFF8
03FFE0
00FFC0
000C00
ENDCHAR
STARTCHAR 010C
ENCODING 268
SWIDTH 690 0
DWIDTH 23 0
BBX 21 31 1 -1
BITMAP
007F00
007F00
003E00
001C00
000800
000000
003F00
01FFC0
07FFF0
0FFFF8
1FFFF8
3FC0F0
3F0060
7E0000
7C0000
7C0000
F80000
F80000
F80000
F80000
FC0000
7C0000
7C0000
7E0000
3F0060
3FE1F0
1FFFF8
0FFFF8
03FFE0
00FFC0
000C00
ENDCHAR
STARTCHAR 010D
ENCODING 269
SWIDTH 690 0
DWIDTH 23 0
BBX 21 31 1 -1
BITMAP
007F00
007F00
003E00
001C00
000800
000000
003F00
01FFC0
07FFF0
0FFFF8
1FFFF8
3FC0F0
3F0060
7E0000
7C0000
7C0000
F80000
F80000
F80000
F80000
FC0000
7C0000
7C0000
7E0000
3F0060
3FE1F0
1FFFF8
0FFFF8
03FFE0
00FFC0
000C00
ENDCHAR
STARTCHAR 010E
ENCODING 270
SWIDTH 690 0
DWIDTH 23 0
BBX 20 30 2 0
BITMAP
0FF000
07E000
07C000
038000
010000
000000
000000
FFF800
FFFE00
FFFF00
FFFF80
F87FC0
F80FC0
F807E0
F803E0
F803F0
F801F0
F801F0
F801F0
F801F0
F801F0
F803E0
F803E0
F807E0
F81FC0
FFFFC0
FFFF80
FFFF00
FFFC00
FFF000
ENDCHAR
STARTCHAR 010F
ENCODING 271
SWIDTH 690 0
DWIDTH 23 0
BBX 20 30 2 0
BITMAP
0FF000
07E000
07C000
038000
010000
000000
000000
FFF800
FFFE00
FFFF00
FFFF80
F87FC0
F80FC0
F807E0
F803E0
F803F0
F801F0
F801F0
F801F0
F801F0
F801F0
F803E0
F803E0
F807E0
F81FC0
FFFFC0
FFFF80
FFFF00
FFFC00
FFF000
ENDCHAR
STARTCHAR 0110
ENCODING 272
SWIDTH 690 0
DWIDTH 23 0
BBX 22 23 1 0
BITMAP
3FFC00
3FFF80
3FFFC0
3FFFE0
3E1FF0
3E03F0
3E01F8
3E00F8
3E00F8
FFF0FC
FFF07C
FFF07C
FFF07C
FFF0F8
3E00F8
3E01F8
3E01F8
3E07F0
3FFFE0
3FFFE0
3FFFC0
3FFF00
3FF800
ENDCHAR
STARTCHAR 0111
ENCODING 273
SWIDTH 690 0
DWIDTH 23 0
BBX 22 23 1 0
BITMAP
3FFC00
3FFF80
3FFFC0
3FFFE0
3E1FF0
3E03F0
3E01F8
3E00F8
3E00F8
FFF0FC
FFF07C
FFF07C
FFF07C
FFF0F8
3E00F8
3E01F8
3E01F8
3E07F0
3FFFE0
3FFFE0
3FFFC0
3FFF00
3FF800
ENDCHAR
STARTCHAR 0112
ENCODING 274
SWIDTH 510 0
DWIDTH 17 0
BBX 16 29 1 0
BITMAP
3FF0
3FF0
3FF0
0000
0000
0000
3FF0
3FF0
3FF0
3FF0
3E00
3E00
3E00
3E00
3E00
FFF8
FFF8
FFF8
FFF8
3E00
3E00
3E00
3E00
3E00
3FFF
3FFF
3FFF
3FFF
3FFF
ENDCHAR
STARTCHAR 0113
ENCODING 275
SWIDTH 510 0
DWIDTH 17 0
BBX 16 29 1 0
BITMAP
3FF0
3FF0
3FF0
0000
0000
0000
3FF0
3FF0
3FF0
3FF0
3E00
3E00
3E00
3E00
3E00
FFF8
FFF8
FFF8
FFF8
3E00
3E00
3E00
3E00
3E00
3FFF
3FFF
3FFF
3FFF
3FFF
ENDCHAR
STARTCHAR 0116
ENCODING 278
SWIDTH 510 0
DWIDTH 17 0
BBX 16 31 1 0
BITMAP
0780
0FC0
0FC0
0FC0
0780
0100
0000
0000
3FF0
3FF0
3FF0
3FF0
3E00
3E00
3E00
3E00
3E00
FFF8
FFF8
FFF8
FFF8
3E00
3E00
3E00
3E00
3E00
3FFF
3FFF
3FFF
3FFF
3FFF
ENDCHAR
STARTCHAR 0117
ENCODING 279
SWIDTH 510 0
DWIDTH 17 0
BBX 16 31 1 0
BITMAP
0780
0FC0
0FC0
0FC0
0780
0100
0000
0000
3FF0
3FF0
3FF0
3FF0
3E00
3E00
3E00
3E00
3E00
FFF8
FFF8
FFF8
FFF8
3E00
3E00
3E00
3E00
3E00
3FFF
3FFF
3FFF
3FFF
3FFF
ENDCHAR
STARTCHAR 0118
ENCODING 280
SWIDTH 510 0
DWIDTH 17 0
BBX 17 30 1 -7
BITMAP
3FF000
3FF000
3FF000
3FF000
3E0000
3E0000
3E0000
3E0000
3E0000
FFF800
FFF800
FFF800
FFF800
3E0000
3E0000
3E0000
3E0000
3E0000
3FFF00
3FFF00
3FFF00
3FFF00
3FFF00
001E00
003800
003800
003800
003F80
001F80
000E00
ENDCHAR
STARTCHAR 0119
ENCODING 281
SWIDTH 510 0
DWIDTH 17 0
BBX 17 30 1 -7
BITMAP
3FF000
3FF000
3FF000
3FF000
3E0000
3E0000
3E0000
3E0000
3E0000
FFF800
FFF800
FFF800
FFF800
3E0000
3E0000
3E0000
3E0000
3E0000
3FFF00
3FFF00
3FFF00
3FFF00
3FFF00
001E00
003800
003800
003800
003F80
001F80
000E00
ENDCHAR
STARTCHAR 011A
ENCODING 282
SWIDTH 510 0
DWIDTH 17 0
BBX 16 30 1 0
BITMAP
1FE0
0FC0
0780
0300
0200
0000
0000
3FF0
3FF0
3FF0
3FF0
3E00
3E00
3E00
3E00
3E00
FFF8
FFF8
FFF8
FFF8
3E00
3E00
3E00
3E00
3E00
3FFF
3FFF
3FFF
3FFF
3FFF
ENDCHAR
STARTCHAR 011B
ENCODING 283
SWIDTH 510 0
DWIDTH 17 0
BBX 16 30 1 0
BITMAP
1FE0
0FC0
0780
0300
0200
0000
0000
3FF0
3FF0
3FF0
3FF0
3E00
3E00
3E00
3E00
3E00
FFF8
FFF8
FFF8
FFF8
3E00
3E00
3E00
3E00
3E00
3FFF
3FFF
3FFF
3FFF
3FFF
ENDCHAR
STARTCHAR 011E
ENCODING 286
SWIDTH 810 0
DWIDTH 27 0
BBX 26 30 1 -1
BITMAP
007F0000
007F0000
003E0000
00180000
00000000
003F0000
01FFC000
07FFF000
0FFFF800
1FFFF800
3FC0F000
3F006000
7E000000
7C000000
7C000000
F80FFFC0
F80FFFC0
F80FFFC0
F80FFFC0
FC0FFFC0
7C001F00
7C003F00
7E003F00
3F007E00
1FC1FE00
1FFFFC00
0FFFF800
03FFF000
00FFC000
000C0000
ENDCHAR
STARTCHAR 011F
ENCODING 287
SWIDTH 810 0
DWIDTH 27 0
BBX 26 30 1 -1
BITMAP
007F0000
007F0000
003E0000
00180000
00000000
003F0000
01FFC000
07FFF000
0FFFF800
1FFFF800
3FC0F000
3F006000
7E000000
7C000000
7C000000
F80FFFC0
F80FFFC0
F80FFFC0
F80FFFC0
FC0FFFC0
7C001F00
7C003F00
7E003F00
3F007E00
1FC1FE00
1FFFFC00
0FFFF800
03FFF000
00FFC000
000C0000
ENDCHAR
STARTCHAR 0120
ENCODING 288
SWIDTH 810 0
DWIDTH 27 0
BBX 26 32 1 -1
BITMAP
001C0000
003E0000
003E0000
003E0000
003E0000
00080000
00000000
003F0000
01FFC000
07FFF000
0FFFF800
1FFFF800
3FC0F000
3F006000
7E000000
7C000000
7C000000
F80FFFC0
F80FFFC0
F80FFFC0
F80FFFC0
FC0FFFC0
7C001F00
7C003F00
7E003F00
3F007E00
1FC1FE00
1FFFFC00
0FFFF800
03FFF000
00FFC000
000C0000
ENDCHAR
STARTCHAR 0121
ENCODING 289
SWIDTH 810 0
DWIDTH 27 0
BBX 26 32 1 -1
BITMAP
001C0000
003E0000
003E0000
003E0000
003E0000
00080000
00000000
003F0000
01FFC000
07FFF000
0FFFF800
1FFFF800
3FC0F000
3F006000
7E000000
7C000000
7C000000
F80FFFC0
F80FFFC0
F80FFFC0
F80FFFC0
FC0FFFC0
7C001F00
7C003F00
7E003F00
3F007E00
1FC1FE00
1FFFFC00
0FFFF800
03FFF000
00FFC000
000C0000
ENDCHAR
STARTCHAR 0124
ENCODING 292
SWIDTH 570 0
DWIDTH 19 0
BBX 17 30 1 0
BITMAP
004000
00E000
01F000
03F800
000000
000000
000000
3E0F80
3E0F80
3E0F80
3E0F80
3E0F80
3E0F80
3E0F80
3E0F80
3E0F80
3E0F80
FFFF80
FFFF80
FFFF80
FFFF80
FFFF80
3E0F80
3E0F80
3E0F80
3E0F80
3E0F80
3E0F80
3E0F80
3E0F80
ENDCHAR
STARTCHAR 0125
ENCODING 293
SWIDTH 570 0
DWIDTH 19 0
BBX 17 30 1 0
BITMAP
004000
00E000
01F000
03F800
000000
000000
000000
3E0F80
3E0F80
3E0F80
3E0F80
3E0F80
3E0F80
3E0F80
3E0F80
3E0F80
3E0F80
FFFF80
FFFF80
FFFF80
FFFF80
FFFF80
3E0F80
3E0F80
3E0F80
3E0F80
3E0F80
3E0F80
3E0F80
3E0F80
ENDCHAR
STARTCHAR 0128
ENCODING 296
SWIDTH 240 0
DWIDTH 8 0
BBX 8 21 0 0
BITMAP
F0
FF
FF
0F
00
00
00
3E
3E
3E
3E
3E
3E
3E
3E
3E
3E
3E
3E
3E
3E
ENDCHAR
STARTCHAR 0129
ENCODING 297
SWIDTH 240 0
DWIDTH 8 0
BBX 8 21 0 0
BITMAP
F0
FF
FF
0F
00
00
00
3E
3E
3E
3E
3E
3E
3E
3E
3E
3E
3E
3E
3E
3E
ENDCHAR
STARTCHAR 012A
ENCODING 298
SWIDTH 240 0
DWIDTH 8 0
BBX 9 20 0 0
BITMAP
FF80
FF80
FF80
0000
0000
0000
3E00
3E00
3E00
3E00
3E00
3E00
3E00
3E00
3E00
3E00
3E00
3E00
3E00
3E00
ENDCHAR
STARTCHAR 012B
ENCODING 299
SWIDTH 240 0
DWIDTH 8 0
BBX 9 20 0 0
BITMAP
FF80
FF80
FF80
0000
0000
0000
3E00
3E00
3E00
3E00
3E00
3E00
3E00
3E00
3E00
3E00
3E00
3E00
3E00
3E00
ENDCHAR
STARTCHAR 012E
ENCODING 302
SWIDTH 240 0
DWIDTH 8 0
BBX 10 33 -1 -6
BITMAP
0400
0C00
1E00
FFC0
3F00
1F00
1F00
3300
2000
0000
0000
0000
1F00
1F00
1F00
1F00
1F00
1F00
1F00
1F00
1F00
1F00
1F00
1F00
1F00
1F00
1C00
3800
3000
7100
3F80
3F80
0E00
ENDCHAR
STARTCHAR 012F
ENCODING 303
SWIDTH 240 0
DWIDTH 8 0
BBX 10 33 -1 -6
BITMAP
0400
0C00
1E00
FFC0
3F00
1F00
1F00
3300
2000
0000
0000
0000
1F00
1F00
1F00
1F00
1F00
1F00
1F00
1F00
1F00
1F00
1F00
1F00
1F00
1F00
1C00
3800
3000
7100
3F80
3F80
0E00
ENDCHAR
STARTCHAR 0130
ENCODING 304
SWIDTH 240 0
DWIDTH 8 0
BBX 5 22 2 0
BITMAP
70
F8
F8
F8
F8
20
00
00
F8
F8
F8
F8
F8
F8
F8
F8
F8
F8
F8
F8
F8
F8
ENDCHAR
STARTCHAR 0139
ENCODING 313
SWIDTH 450 0
DWIDTH 15 0
BBX 13 30 2 0
BITMAP
1C00
3C00
3800
7000
0000
0000
0000
F800
F800
F800
F800
F800
F800
F800
F800
F800
F800
F800
F800
F800
F800
F800
F800
F800
F800
FFF8
FFF8
FFF8
FFF8
FFF8
ENDCHAR
STARTCHAR 013A
ENCODING 314
SWIDTH 450 0
DWIDTH 15 0
BBX 13 30 2 0
BITMAP
1C00
3C00
3800
7000
0000
0000
0000
F800
F800
F800
F800
F800
F800
F800
F800
F800
F800
F800
F800
F800
F800
F800
F800
F800
F800
FFF8
FFF8
FFF8
FFF8
FFF8
ENDCHAR
STARTCHAR 013D
ENCODING 317
SWIDTH 450 0
DWIDTH 15 0
BBX 15 30 0 0
BITMAP
FF00
7E00
3E00
1C00
0800
0000
0000
3E00
3E00
3E00
3E00
3E00
3E00
3E00
3E00
3E00
3E00
3E00
3E00
3E00
3E00
3E00
3E00
3E00
3E00
3FFE
3FFE
3FFE
3FFE
3FFE
ENDCHAR
STARTCHAR 013E
ENCODING 318
SWIDTH 450 0
DWIDTH 15 0
BBX 15 30 0 0
BITMAP
FF00
7E00
3E00
1C00
0800
0000
0000
3E00
3E00
3E00
3E00
3E00
3E00
3E00
3E00
3E00
3E00
3E00
3E00
3E00
3E00
3E00
3E00
3E00
3E00
3FFE
3FFE
3FFE
3FFE
3FFE
ENDCHAR
STARTCHAR 0141
ENCODING 321
SWIDTH 510 0
DWIDTH 17 0
BBX 16 23 1 0
BITMAP
1F00
1F00
1F00
1F00
1F00
1F00
1F10
1F70
1FF8
1FE0
1F80
3F00
FF00
FF00
DF00
1F00
1F00
1F00
1FFF
1FFF
1FFF
1FFF
1FFF
ENDCHAR
STARTCHAR 0142
ENCODING 322
SWIDTH 510 0
DWIDTH 17 0
BBX 16 23 1 0
BITMAP
1F00
1F00
1F00
1F00
1F00
1F00
1F10
1F70
1FF8
1FE0
1F80
3F00
FF00
FF00
DF00
1F00
1F00
1F00
1FFF
1FFF
1FFF
1FFF
1FFF
ENDCHAR
STARTCHAR 0143
ENCODING 323
SWIDTH 570 0
DWIDTH 19 0
BBX 17 30 1 0
BITMAP
007800
007000
00E000
00E000
000000
000000
200000
780F80
7C0F80
FE0F80
FF0F80
3FCF80
3FEF80
3FFF80
3FFF80
3FFF80
3EFF80
3E7F80
3E1F80
3E0F80
3E0F80
3E0F80
3E0F80
3E0F80
3E0F80
3E0F80
3E0F80
3E0F80
3E0F80
3E0F80
ENDCHAR
STARTCHAR 0144
ENCODING 324
SWIDTH 570 0
DWIDTH 19 0
BBX 17 30 1 0
BITMAP
007800
007000
00E000
00E000
000000
000000
200000
780F80
7C0F80
FE0F80
FF0F80
3FCF80
3FEF80
3FFF80
3FFF80
3FFF80
3EFF80
3E7F80
3E1F80
3E0F80
3E0F80
3E0F80
3E0F80
3E0F80
3E0F80
3E0F80
3E0F80
3E0F80
3E0F80
3E0F80
ENDCHAR
STARTCHAR 0147
ENCODING 327
SWIDTH 570 0
DWIDTH 19 0
BBX 17 30 1 0
BITMAP
07F800
03F000
01E000
01C000
008000
000000
200000
780F80
7C0F80
FE0F80
FF0F80
3FCF80
3FEF80
3FFF80
3FFF80
3FFF80
3EFF80
3E7F80
3E1F80
3E0F80
3E0F80
3E0F80
3E0F80
3E0F80
3E0F80
3E0F80
3E0F80
3E0F80
3E0F80
3E0F80
ENDCHAR
STARTCHAR 0148
ENCODING 328
SWIDTH 570 0
DWIDTH 19 0
BBX 17 30 1 0
BITMAP
07F800
03F000
01E000
01C000
008000
000000
200000
780F80
7C0F80
FE0F80
FF0F80
3FCF80
3FEF80
3FFF80
3FFF80
3FFF80
3EFF80
3E7F80
3E1F80
3E0F80
3E0F80
3E0F80
3E0F80
3E0F80
3E0F80
3E0F80
3E0F80
3E0F80
3E0F80
3E0F80
ENDCHAR
STARTCHAR 014C
ENCODING 332
SWIDTH 810 0
DWIDTH 27 0
BBX 25 30 1 -1
BITMAP
00FFC000
00FFC000
00FFC000
00000000
00000000
003F0000
01FFE000
07FFF000
0FFFFC00
1FFFFE00
3FC0FE00
3F003F00
7E001F00
7C001F80
7C000F80
F8000F80
F8000F80
F8000F80
F8000F80
FC000F80
7C000F80
7C001F80
7E003F00
3F007F00
1FE1FE00
1FFFFC00
0FFFF800
03FFF000
00FFC000
000C0000
ENDCHAR
STARTCHAR 014D
ENCODING 333
SWIDTH 810 0
DWIDTH 27 0
BBX 25 30 1 -1
BITMAP
00FFC000
00FFC000
00FFC000
00000000
00000000
003F0000
01FFE000
07FFF000
0FFFFC00
1FFFFE00
3FC0FE00
3F003F00
7E001F00
7C001F80
7C000F80
F8000F80
F8000F80
F8000F80
F8000F80
FC000F80
7C000F80
7C001F80
7E003F00
3F007F00
1FE1FE00
1FFFFC00
0FFFF800
03FFF000
00FFC000
000C0000
ENDCHAR
STARTCHAR 0150
ENCODING 336
SWIDTH 810 0
DWIDTH 27 0
BBX 25 31 1 -1
BITMAP
0038E000
0079C000
0071C000
00638000
00000000
00000000
003F0000
01FFE000
07FFF000
0FFFFC00
1FFFFE00
3FC0FE00
3F003F00
7E001F00
7C001F80
7C000F80
F8000F80
F8000F80
F8000F80
F8000F80
FC000F80
7C000F80
7C001F80
7E003F00
3F007F00
1FE1FE00
1FFFFC00
0FFFF800
03FFF000
00FFC000
000C0000
ENDCHAR
STARTCHAR 0151
ENCODING 337
SWIDTH 810 0
DWIDTH 27 0
BBX 25 31 1 -1
BITMAP
0038E000
0079C000
0071C000
00638000
00000000
00000000
003F0000
01FFE000
07FFF000
0FFFFC00
1FFFFE00
3FC0FE00
3F003F00
7E001F00
7C001F80
7C000F80
F8000F80
F8000F80
F8000F80
F8000F80
FC000F80
7C000F80
7C001F80
7E003F00
3F007F00
1FE1FE00
1FFFFC00
0FFFF800
03FFF000
00FFC000
000C0000
ENDCHAR
STARTCHAR 0154
ENCODING 340
SWIDTH 600 0
DWIDTH 20 0
BBX 19 30 1 0
BITMAP
003800
007800
007000
00E000
000000
000000
000000
3FFE00
3FFF00
3FFF80
3FFFC0
3E0FC0
3E07E0
3E03E0
3E03E0
3E07E0
3E0FC0
FFFFC0
FFFF80
FFFF00
FFFF80
3E1F80
3E0F80
3E07C0
3E07C0
3E07C0
3E07C0
3E07C0
3E07C0
3E07C0
ENDCHAR
STARTCHAR 0155
ENCODING 341
SWIDTH 600 0
DWIDTH 20 0
BBX 19 30 1 0
BITMAP
003800
007800
007000
00E000
000000
000000
000000
3FFE00
3FFF00
3FFF80
3FFFC0
3E0FC0
3E07E0
3E03E0
3E03E0
3E07E0
3E0FC0
FFFFC0
FFFF80
FFFF00
FFFF80
3E1F80
3E0F80
3E07C0
3E07C0
3E07C0
3E07C0
3E07C0
3E07C0
3E07C0
ENDCHAR
STARTCHAR 0158
ENCODING 344
SWIDTH 600 0
DWIDTH 20 0
BBX 19 30 1 0
BITMAP
07F800
03F000
01F000
00E000
004000
000000
000000
3FFE00
3FFF00
3FFF80
3FFFC0
3E0FC0
3E07E0
3E03E0
3E03E0
3E07E0
3E0FC0
FFFFC0
FFFF80
FFFF00
FFFF80
3E1F80
3E0F80
3E07C0
3E07C0
3E07C0
3E07C0
3E07C0
3E07C0
3E07C0
ENDCHAR
STARTCHAR 0159
ENCODING 345
SWIDTH 600 0
DWIDTH 20 0
BBX 19 30 1 0
BITMAP
07F800
03F000
01F000
00E000
004000
000000
000000
3FFE00
3FFF00
3FFF80
3FFFC0
3E0FC0
3E07E0
3E03E0
3E03E0
3E07E0
3E0FC0
FFFFC0
FFFF80
FFFF00
FFFF80
3E1F80
3E0F80
3E07C0
3E07C0
3E07C0
3E07C0
3E07C0
3E07C0
3E07C0
ENDCHAR
STARTCHAR 015A
ENCODING 346
SWIDTH 510 0
DWIDTH 17 0
BBX 15 31 1 -1
BITMAP
00E0
00E0
01C0
01C0
0000
0000
07C0
1FF0
3FF8
7FFC
7FFC
7C7E
7C38
7C00
7E00
3F80
3FC0
1FF0
0FF8
03FC
01FE
007E
003E
183E
F83E
FE7E
7FFE
7FFC
3FF8
0FF0
0080
ENDCHAR
STARTCHAR 015B
ENCODING 347
SWIDTH 510 0
DWIDTH 17 0
BBX 15 31 1 -1
BITMAP
00E0
00E0
01C0
01C0
0000
0000
07C0
1FF0
3FF8
7FFC
7FFC
7C7E
7C38
7C00
7E00
3F80
3FC0
1FF0
0FF8
03FC
01FE
007E
003E
183E
F83E
FE7E
7FFE
7FFC
3FF8
0FF0
0080
ENDCHAR
STARTCHAR 015E
ENCODING 350
SWIDTH 510 0
DWIDTH 17 0
BBX 15 31 1 -7
BITMAP
07C0
1FF0
3FF8
7FFC
7FFC
7C7E
7C38
7C00
7E00
3F80
3FC0
1FF0
0FF8
03FC
01FE
007E
003E
183E
F83E
FE7E
7FFE
7FFC
3FF8
0FF0
0180
0380
03C0
00E0
0CE0
1FC0
0FC0
ENDCHAR
STARTCHAR 015F
ENCODING 351
SWIDTH 510 0
DWIDTH 17 0
BBX 15 31 1 -7
BITMAP
07C0
1FF0
3FF8
7FFC
7FFC
7C7E
7C38
7C00
7E00
3F80
3FC0
1FF0
0FF8
03FC
01FE
007E
003E
183E
F83E
FE7E
7FFE
7FFC
3FF8
0FF0
0180
0380
03C0
00E0
0CE0
1FC0
0FC0
ENDCHAR
STARTCHAR 0160
ENCODING 352
SWIDTH 510 0
DWIDTH 17 0
BBX 15 31 1 -1
BITMAP
0FF0
07E0
07C0
0380
0100
0000
07C0
1FF0
3FF8
7FFC
7FFC
7C7E
7C38
7C00
7E00
3F80
3FC0
1FF0
0FF8
03FC
01FE
007E
003E
183E
F83E
FE7E
7FFE
7FFC
3FF8
0FF0
0080
ENDCHAR
STARTCHAR 0161
ENCODING 353
SWIDTH 510 0
DWIDTH 17 0
BBX 15 31 1 -1
BITMAP
0FF0
07E0
07C0
0380
0100
0000
07C0
1FF0
3FF8
7FFC
7FFC
7C7E
7C38
7C00
7E00
3F80
3FC0
1FF0
0FF8
03FC
01FE
007E
003E
183E
F83E
FE7E
7FFE
7FFC
3FF8
0FF0
0080
ENDCHAR
STARTCHAR 0162
ENCODING 354
SWIDTH 510 0
DWIDTH 17 0
BBX 16 30 1 -7
BITMAP
FFFF
FFFF
FFFF
FFFF
07C0
07C0
07C0
07C0
07C0
07C0
07C0
07C0
07C0
07C0
07C0
07C0
07C0
07C0
07C0
07C0
07C0
07C0
07C0
0180
0380
03C0
00C0
0CE0
1FC0
0FC0
ENDCHAR
STARTCHAR 0163
ENCODING 355
SWIDTH 510 0
DWIDTH 17 0
BBX 16 30 1 -7
BITMAP
FFFF
FFFF
FFFF
FFFF
07C0
07C0
07C0
07C0
07C0
07C0
07C0
07C0
07C0
07C0
07C0
07C0
07C0
07C0
07C0
07C0
07C0
07C0
07C0
0180
0380
03C0
00C0
0CE0
1FC0
0FC0
ENDCHAR
STARTCHAR 0164
ENCODING 356
SWIDTH 510 0
DWIDTH 17 0
BBX 16 30 1 0
BITMAP
0FF0
07E0
03C0
0180
0100
0000
0000
FFFF
FFFF
FFFF
FFFF
07C0
07C0
07C0
07C0
07C0
07C0
07C0
07C0
07C0
07C0
07C0
07C0
07C0
07C0
07C0
07C0
07C0
07C0
07C0
ENDCHAR
STARTCHAR 0165
ENCODING 357
SWIDTH 510 0
DWIDTH 17 0
BBX 16 30 1 0
BITMAP
0FF0
07E0
03C0
0180
0100
0000
0000
FFFF
FFFF
FFFF
FFFF
07C0
07C0
07C0
07C0
07C0
07C0
07C0
07C0
07C0
07C0
07C0
07C0
07C0
07C0
07C0
07C0
07C0
07C0
07C0
ENDCHAR
STARTCHAR 0168
ENCODING 360
SWIDTH 540 0
DWIDTH 18 0
BBX 15 31 2 -1
BITMAP
1E20
1FE0
1FE0
01C0
0000
0000
0000
F83E
F83E
F83E
F83E
F83E
F83E
F83E
F83E
F83E
F83E
F83E
F83E
F83E
F83E
F83E
F83E
F83E
F87C
FCFC
FFFC
7FF8
3FF0
1FE0
0100
ENDCHAR
STARTCHAR 0169
ENCODING 361
SWIDTH 540 0
DWIDTH 18 0
BBX 15 31 2 -1
BITMAP
1E20
1FE0
1FE0
01C0
0000
0000
0000
F83E
F83E
F83E
F83E
F83E
F83E
F83E
F83E
F83E
F83E
F83E
F83E
F83E
F83E
F83E
F83E
F83E
F87C
FCFC
FFFC
7FF8
3FF0
1FE0
0100
ENDCHAR
STARTCHAR 016A
ENCODING 362
SWIDTH 540 0
DWIDTH 18 0
BBX 15 30 2 -1
BITMAP
3FF0
3FF0
3FF0
0000
0000
0000
F83E
F83E
F83E
F83E
F83E
F83E
F83E
F83E
F83E
F83E
F83E
F83E
F83E
F83E
F83E
F83E
F83E
F87C
FCFC
FFFC
7FF8
3FF0
1FE0
0100
ENDCHAR
STARTCHAR 016B
ENCODING 363
SWIDTH 540 0
DWIDTH 18 0
BBX 15 30 2 -1
BITMAP
3FF0
3FF0
3FF0
0000
0000
0000
F83E
F83E
F83E
F83E
F83E
F83E
F83E
F83E
F83E
F83E
F83E
F83E
F83E
F83E
F83E
F83E
F83E
F87C
FCFC
FFFC
7FF8
3FF0
1FE0
0100
ENDCHAR
STARTCHAR 016E
ENCODING 366
SWIDTH 540 0
DWIDTH 18 0
BBX 15 33 2 -1
BITMAP
0780
0FC0
0CC0
0CE0
0EC0
0FC0
0780
0000
0000
F83E
F83E
F83E
F83E
F83E
F83E
F83E
F83E
F83E
F83E
F83E
F83E
F83E
F83E
F83E
F83E
F83E
F87C
FCFC
FFFC
7FF8
3FF0
1FE0
0100
ENDCHAR
STARTCHAR 016F
ENCODING 367
SWIDTH 540 0
DWIDTH 18 0
BBX 15 33 2 -1
BITMAP
0780
0FC0
0CC0
0CE0
0EC0
0FC0
0780
0000
0000
F83E
F83E
F83E
F83E
F83E
F83E
F83E
F83E
F83E
F83E
F83E
F83E
F83E
F83E
F83E
F83E
F83E
F87C
FCFC
FFFC
7FF8
3FF0
1FE0
0100
ENDCHAR
STARTCHAR 0170
ENCODING 368
SWIDTH 540 0
DWIDTH 18 0
BBX 15 31 2 -1
BITMAP
0F38
0E78
1C70
1CE0
0000
0000
0000
F83E
F83E
F83E
F83E
F83E
F83E
F83E
F83E
F83E
F83E
F83E
F83E
F83E
F83E
F83E
F83E
F83E
F87C
FCFC
FFFC
7FF8
3FF0
1FE0
0100
ENDCHAR
STARTCHAR 0171
ENCODING 369
SWIDTH 540 0
DWIDTH 18 0
BBX 15 31 2 -1
BITMAP
0F38
0E78
1C70
1CE0
0000
0000
0000
F83E
F83E
F83E
F83E
F83E
F83E
F83E
F83E
F83E
F83E
F83E
F83E
F83E
F83E
F83E
F83E
F83E
F87C
FCFC
FFFC
7FF8
3FF0
1FE0
0100
ENDCHAR
STARTCHAR 0172
ENCODING 370
SWIDTH 540 0
DWIDTH 18 0
BBX 15 30 2 -7
BITMAP
F83E
F83E
F83E
F83E
F83E
F83E
F83E
F83E
F83E
F83E
F83E
F83E
F83E
F83E
F83E
F83E
F83E
F87C
FCFC
FFFC
7FF8
3FF0
1FE0
0700
0E00
0C00
0E40
0FE0
07E0
0180
ENDCHAR
STARTCHAR 0173
ENCODING 371
SWIDTH 540 0
DWIDTH 18 0
BBX 15 30 2 -7
BITMAP
F83E
F83E
F83E
F83E
F83E
F83E
F83E
F83E
F83E
F83E
F83E
F83E
F83E
F83E
F83E
F83E
F83E
F87C
FCFC
FFFC
7FF8
3FF0
1FE0
0700
0E00
0C00
0E40
0FE0
07E0
0180
ENDCHAR
STARTCHAR 0176
ENCODING 374
SWIDTH 510 0
DWIDTH 17 0
BBX 15 30 1 0
BITMAP
0180
03C0
07E0
0FE0
0010
0000
0000
F83E
F83E
F83E
F83E
F83E
F83E
F83E
F83E
F83E
F83E
F83E
7C3E
7C3E
7FFE
3FFC
3FF8
0FF0
07C0
07C0
07C0
07C0
07C0
07C0
ENDCHAR
STARTCHAR 0177
ENCODING 375
SWIDTH 510 0
DWIDTH 17 0
BBX 15 30 1 0
BITMAP
0180
03C0
07E0
0FE0
0010
0000
0000
F83E
F83E
F83E
F83E
F83E
F83E
F83E
F83E
F83E
F83E
F83E
7C3E
7C3E
7FFE
3FFC
3FF8
0FF0
07C0
07C0
07C0
07C0
07C0
07C0
ENDCHAR
STARTCHAR 0178
ENCODING 376
SWIDTH 510 0
DWIDTH 17 0
BBX 15 31 1 0
BITMAP
1808
3C3C
7E7E
7E7E
7E3E
3C3C
0000
0000
F83E
F83E
F83E
F83E
F83E
F83E
F83E
F83E
F83E
F83E
F83E
7C3E
7C3E
7FFE
3FFC
3FF8
0FF0
07C0
07C0
07C0
07C0
07C0
07C0
ENDCHAR
STARTCHAR 0179
ENCODING 377
SWIDTH 540 0
DWIDTH 18 0
BBX 16 30 1 0
BITMAP
00F0
00E0
00E0
01C0
0000
0000
0000
FFFF
FFFF
FFFF
FFFE
007E
007C
00F8
01F8
01F0
03F0
03E0
07E0
07C0
0F80
1F80
1F00
3F00
3E00
7FFF
FFFF
FFFF
FFFF
FFFF
ENDCHAR
STARTCHAR 017A
ENCODING 378
SWIDTH 540 0
DWIDTH 18 0
BBX 16 30 1 0
BITMAP
00F0
00E0
00E0
01C0
0000
0000
0000
FFFF
FFFF
FFFF
FFFE
007E
007C
00F8
01F8
01F0
03F0
03E0
07E0
07C0
0F80
1F80
1F00
3F00
3E00
7FFF
FFFF
FFFF
FFFF
FFFF
ENDCHAR
STARTCHAR 017B
ENCODING 379
SWIDTH 540 0
DWIDTH 18 0
BBX 16 31 1 0
BITMAP
03C0
03E0
07E0
07E0
03E0
0080
0000
0000
FFFF
FFFF
FFFF
FFFE
007E
007C
00F8
01F8
01F0
03F0
03E0
07E0
07C0
0F80
1F80
1F00
3F00
3E00
7FFF
FFFF
FFFF
FFFF
FFFF
ENDCHAR
STARTCHAR 017C
ENCODING 380
SWIDTH 540 0
DWIDTH 18 0
BBX 16 31 1 0
BITMAP
03C0
03E0
07E0
07E0
03E0
0080
0000
0000
FFFF
FFFF
FFFF
FFFE
007E
007C
00F8
01F8
01F0
03F0
03E0
07E0
07C0
0F80
1F80
1F00
3F00
3E00
7FFF
FFFF
FFFF
FFFF
FFFF
ENDCHAR
STARTCHAR 017D
ENCODING 381
SWIDTH 540 0
DWIDTH 18 0
BBX 16 30 1 0
BITMAP
0FF0
07E0
03C0
0180
0080
0000
0000
FFFF
FFFF
FFFF
FFFE
007E
007C
00F8
01F8
01F0
03F0
03E0
07E0
07C0
0F80
1F80
1F00
3F00
3E00
7FFF
FFFF
FFFF
FFFF
FFFF
ENDCHAR
STARTCHAR 017E
ENCODING 382
SWIDTH 540 0
DWIDTH 18 0
BBX 16 30 1 0
BITMAP
0FF0
07E0
03C0
0180
0080
0000
0000
FFFF
FFFF
FFFF
FFFE
007E
007C
00F8
01F8
01F0
03F0
03E0
07E0
07C0
0F80
1F80
1F00
3F00
3E00
7FFF
FFFF
FFFF
FFFF
FFFF
ENDCHAR
STARTCHAR 01A0
ENCODING 416
SWIDTH 810 0
DWIDTH 27 0
BBX 25 27 1 -1
BITMAP
00000700
00000700
003F0700
01FFE700
07FFF600
0FFFFC00
1FFFFE00
3FC0FE00
3F003F00
7E001F00
7C001F80
7C000F80
F8000F80
F8000F80
F8000F80
F8000F80
FC000F80
7C000F80
7C001F80
7E003F00
3F007F00
1FE1FE00
1FFFFC00
0FFFF800
03FFF000
00FFC000
000C0000
ENDCHAR
STARTCHAR 01A1
ENCODING 417
SWIDTH 810 0
DWIDTH 27 0
BBX 25 27 1 -1
BITMAP
00000700
00000700
003F0700
01FFE700
07FFF600
0FFFFC00
1FFFFE00
3FC0FE00
3F003F00
7E001F00
7C001F80
7C000F80
F8000F80
F8000F80
F8000F80
F8000F80
FC000F80
7C000F80
7C001F80
7E003F00
3F007F00
1FE1FE00
1FFFFC00
0FFFF800
03FFF000
00FFC000
000C0000
ENDCHAR
STARTCHAR 01AF
ENCODING 431
SWIDTH 540 0
DWIDTH 18 0
BBX 19 27 2 -1
BITMAP
0001E0
0001C0
0001C0
F83FC0
F83FC0
F83E00
F83E00
F83E00
F83E00
F83E00
F83E00
F83E00
F83E00
F83E00
F83E00
F83E00
F83E00
F83E00
F83E00
F83E00
F87C00
FCFC00
FFFC00
7FF800
3FF000
1FE000
010000
ENDCHAR
STARTCHAR 01B0
ENCODING 432
SWIDTH 540 0
DWIDTH 18 0
BBX 19 27 2 -1
BITMAP
0001E0
0001C0
0001C0
F83FC0
F83FC0
F83E00
F83E00
F83E00
F83E00
F83E00
F83E00
F83E00
F83E00
F83E00
F83E00
F83E00
F83E00
F83E00
F83E00
F83E00
F87C00
FCFC00
FFFC00
7FF800
3FF000
1FE000
010000
ENDCHAR
STARTCHAR 01CD
ENCODING 461
SWIDTH 570 0
DWIDTH 19 0
BBX 17 30 2 0
BITMAP
1FE000
0FC000
078000
038000
010000
000000
078000
1FF000
3FF800
7FF800
FFFC00
FC7C00
F87E00
F83E00
F83E00
F83E00
F83E00
F83E00
F83E00
F83E00
F83E00
F83E00
F83E00
F83E00
F83E00
FFFF80
FFFF80
FFFF80
FFFF80
FFFF80
ENDCHAR
STARTCHAR 01CE
ENCODING 462
SWIDTH 570 0
DWIDTH 19 0
BBX 17 30 2 0
BITMAP
1FE000
0FC000
078000
038000
010000
000000
078000
1FF000
3FF800
7FF800
FFFC00
FC7C00
F87E00
F83E00
F83E00
F83E00
F83E00
F83E00
F83E00
F83E00
F83E00
F83E00
F83E00
F83E00
F83E00
FFFF80
FFFF80
FFFF80
FFFF80
FFFF80
ENDCHAR
STARTCHAR 01CF
ENCODING 463
SWIDTH 240 0
DWIDTH 8 0
BBX 8 21 0 0
BITMAP
FF
7E
3E
1C
08
00
00
3E
3E
3E
3E
3E
3E
3E
3E
3E
3E
3E
3E
3E
3E
ENDCHAR
STARTCHAR 01D0
ENCODING 464
SWIDTH 240 0
DWIDTH 8 0
BBX 8 21 0 0
BITMAP
FF
7E
3E
1C
08
00
00
3E
3E
3E
3E
3E
3E
3E
3E
3E
3E
3E
3E
3E
3E
ENDCHAR
STARTCHAR 01D1
ENCODING 465
SWIDTH 810 0
DWIDTH 27 0
BBX 25 31 1 -1
BITMAP
007F8000
003F0000
001E0000
001C0000
00080000
00000000
003F0000
01FFE000
07FFF000
0FFFFC00
1FFFFE00
3FC0FE00
3F003F00
7E001F00
7C001F80
7C000F80
F8000F80
F8000F80
F8000F80
F8000F80
FC000F80
7C000F80
7C001F80
7E003F00
3F007F00
1FE1FE00
1FFFFC00
0FFFF800
03FFF000
00FFC000
000C0000
ENDCHAR
STARTCHAR 01D2
ENCODING 466
SWIDTH 810 0
DWIDTH 27 0
BBX 25 31 1 -1
BITMAP
007F8000
003F0000
001E0000
001C0000
00080000
00000000
003F0000
01FFE000
07FFF000
0FFFFC00
1FFFFE00
3FC0FE00
3F003F00
7E001F00
7C001F80
7C000F80
F8000F80
F8000F80
F8000F80
F8000F80
FC000F80
7C000F80
7C001F80
7E003F00
3F007F00
1FE1FE00
1FFFFC00
0FFFF800
03FFF000
00FFC000
000C0000
ENDCHAR
STARTCHAR 01D3
ENCODING 467
SWIDTH 540 0
DWIDTH 18 0
BBX 15 31 2 -1
BITMAP
1FE0
0FC0
0780
0300
0100
0000
0000
F83E
F83E
F83E
F83E
F83E
F83E
F83E
F83E
F83E
F83E
F83E
F83E
F83E
F83E
F83E
F83E
F83E
F87C
FCFC
FFFC
7FF8
3FF0
1FE0
0100
ENDCHAR
STARTCHAR 01D4
ENCODING 468
SWIDTH 540 0
DWIDTH 18 0
BBX 15 31 2 -1
BITMAP
1FE0
0FC0
0780
0300
0100
0000
0000
F83E
F83E
F83E
F83E
F83E
F83E
F83E
F83E
F83E
F83E
F83E
F83E
F83E
F83E
F83E
F83E
F83E
F87C
FCFC
FFFC
7FF8
3FF0
1FE0
0100
ENDCHAR
STARTCHAR 02C6
ENCODING 710
SWIDTH 330 0
DWIDTH 11 0
BBX 8 4 0 26
BITMAP
18
3C
3E
FF
ENDCHAR
STARTCHAR 02C7
ENCODING 711
SWIDTH 240 0
DWIDTH 8 0
BBX 8 5 0 25
BITMAP
FF
7E
3C
18
08
ENDCHAR
STARTCHAR 02D8
ENCODING 728
SWIDTH 270 0
DWIDTH 9 0
BBX 7 4 0 25
BITMAP
FE
FE
7C
10
ENDCHAR
STARTCHAR 02D9
ENCODING 729
SWIDTH 150 0
DWIDTH 5 0
BBX 6 5 0 25
BITMAP
78
FC
FC
FC
78
ENDCHAR
STARTCHAR 02DA
ENCODING 730
SWIDTH 180 0
DWIDTH 6 0
BBX 7 7 0 25
BITMAP
78
7C
C6
C6
EE
7C
38
ENDCHAR
STARTCHAR 02DB
ENCODING 731
SWIDTH 210 0
DWIDTH 7 0
BBX 7 7 0 -7
BITMAP
7C
E0
E0
E0
FE
7E
38
ENDCHAR
STARTCHAR 02DC
ENCODING 732
SWIDTH 210 0
DWIDTH 7 0
BBX 8 4 0 26
BITMAP
F0
FF
FF
0F
ENDCHAR
STARTCHAR 02DD
ENCODING 733
SWIDTH 330 0
DWIDTH 11 0
BBX 11 4 0 26
BITMAP
39E0
79C0
73C0
E380
ENDCHAR
STARTCHAR 0300
ENCODING 768
SWIDTH 0 0
DWIDTH 0 0
BBX 5 4 -5 26
BITMAP
E0
F0
70
38
ENDCHAR
STARTCHAR 0301
ENCODING 769
SWIDTH 0 0
DWIDTH 0 0
BBX 5 4 -5 26
BITMAP
78
70
E0
E0
ENDCHAR
STARTCHAR 0302
ENCODING 770
SWIDTH 0 0
DWIDTH 0 0
BBX 8 4 -8 26
BITMAP
18
3C
7C
FF
ENDCHAR
STARTCHAR 0303
ENCODING 771
SWIDTH 0 0
DWIDTH 0 0
BBX 8 4 -8 26
BITMAP
F0
FF
FF
0F
ENDCHAR
STARTCHAR 0304
ENCODING 772
SWIDTH 0 0
DWIDTH 0 0
BBX 10 3 -10 26
BITMAP
FFC0
FFC0
FFC0
ENDCHAR
STARTCHAR 0306
ENCODING 774
SWIDTH 0 0
DWIDTH 0 0
BBX 7 4 -7 25
BITMAP
FE
FE
7C
10
ENDCHAR
STARTCHAR 0307
ENCODING 775
SWIDTH 0 0
DWIDTH 0 0
BBX 6 6 -6 25
BITMAP
78
7C
FC
7C
78
10
ENDCHAR
STARTCHAR 0308
ENCODING 776
SWIDTH 0 0
DWIDTH 0 0
BBX 14 6 -14 25
BITMAP
3010
787C
FCFC
FCFC
FC7C
7878
ENDCHAR
STARTCHAR 0309
ENCODING 777
SWIDTH 0 0
DWIDTH 0 0
BBX 4 7 -4 25
BITMAP
70
70
70
70
E0
E0
70
ENDCHAR
STARTCHAR 030A
ENCODING 778
SWIDTH 0 0
DWIDTH 0 0
BBX 7 7 -7 25
BITMAP
3C
7C
C6
C6
EE
7C
38
ENDCHAR
STARTCHAR 030B
ENCODING 779
SWIDTH 0 0
DWIDTH 0 0
BBX 11 4 -11 26
BITMAP
79E0
71C0
7380
E380
ENDCHAR
STARTCHAR 030C
ENCODING 780
SWIDTH 0 0
DWIDTH 0 0
BBX 8 5 -8 25
BITMAP
FF
7E
3C
38
10
ENDCHAR
STARTCHAR 031B
ENCODING 795
SWIDTH 0 0
DWIDTH 0 0
BBX 4 5 -4 21
BITMAP
F0
F0
E0
E0
E0
ENDCHAR
STARTCHAR 0323
ENCODING 803
SWIDTH 0 0
DWIDTH 0 0
BBX 6 5 -6 -8
BITMAP
78
FC
FC
FC
78
ENDCHAR
STARTCHAR 0326
ENCODING 806
SWIDTH 0 0
DWIDTH 0 0
BBX 5 5 -5 -7
BITMAP
78
70
F0
E0
E0
ENDCHAR
STARTCHAR 0327
ENCODING 807
SWIDTH 0 0
DWIDTH 0 0
BBX 8 7 -8 -7
BITMAP
0C
0C
0E
03
67
FF
7E
ENDCHAR
STARTCHAR 0328
ENCODING 808
SWIDTH 0 0
DWIDTH 0 0
BBX 8 7 -8 -7
BITMAP
7C
60
E0
E2
FF
7E
3C
ENDCHAR
STARTCHAR 0335
ENCODING 821
SWIDTH 0 0
DWIDTH 0 0
BBX 11 4 -11 5
BITMAP
FFE0
FFE0
FFE0
FFE0
ENDCHAR
STARTCHAR 1EA0
ENCODING 7840
SWIDTH 570 0
DWIDTH 19 0
BBX 17 33 2 -9
BITMAP
078000
1FF000
3FF800
7FF800
FFFC00
FC7C00
F87E00
F83E00
F83E00
F83E00
F83E00
F83E00
F83E00
F83E00
F83E00
F83E00
F83E00
F83E00
F83E00
FFFF80
FFFF80
FFFF80
FFFF80
FFFF80
000000
000000
000000
010000
07C000
07C000
0FC000
07C000
078000
ENDCHAR
STARTCHAR 1EA1
ENCODING 7841
SWIDTH 570 0
DWIDTH 19 0
BBX 17 33 2 -9
BITMAP
078000
1FF000
3FF800
7FF800
FFFC00
FC7C00
F87E00
F83E00
F83E00
F83E00
F83E00
F83E00
F83E00
F83E00
F83E00
F83E00
F83E00
F83E00
F83E00
FFFF80
FFFF80
FFFF80
FFFF80
FFFF80
000000
000000
000000
010000
07C000
07C000
0FC000
07C000
078000
ENDCHAR
STARTCHAR 1EA2
ENCODING 7842
SWIDTH 570 0
DWIDTH 19 0
BBX 17 32 2 0
BITMAP
038000
038000
038000
030000
070000
070000
030000
000000
078000
1FF000
3FF800
7FF800
FFFC00
FC7C00
F87E00
F83E00
F83E00
F83E00
F83E00
F83E00
F83E00
F83E00
F83E00
F83E00
F83E00
F83E00
F83E00
FFFF80
FFFF80
FFFF80
FFFF80
FFFF80
ENDCHAR
STARTCHAR 1EA3
ENCODING 7843
SWIDTH 570 0
DWIDTH 19 0
BBX 17 32 2 0
BITMAP
038000
038000
038000
030000
070000
070000
030000
000000
078000
1FF000
3FF800
7FF800
FFFC00
FC7C00
F87E00
F83E00
F83E00
F83E00
F83E00
F83E00
F83E00
F83E00
F83E00
F83E00
F83E00
F83E00
F83E00
FFFF80
FFFF80
FFFF80
FFFF80
FFFF80
ENDCHAR
STARTCHAR 1EA4
ENCODING 7844
SWIDTH 570 0
DWIDTH 19 0
BBX 17 32 2 0
BITMAP
000F00
000E00
031C00
079C00
07C000
0FE000
000000
000000
078000
1FF000
3FF800
7FF800
FFFC00
FC7C00
F87E00
F83E00
F83E00
F83E00
F83E00
F83E00
F83E00
F83E00
F83E00
F83E00
F83E00
F83E00
F83E00
FFFF80
FFFF80
FFFF80
FFFF80
FFFF80
ENDCHAR
STARTCHAR 1EA5
ENCODING 7845
SWIDTH 570 0
DWIDTH 19 0
BBX 17 32 2 0
BITMAP
000F00
000E00
031C00
079C00
07C000
0FE000
000000
000000
078000
1FF000
3FF800
7FF800
FFFC00
FC7C00
F87E00
F83E00
F83E00
F83E00
F83E00
F83E00
F83E00
F83E00
F83E00
F83E00
F83E00
F83E00
F83E00
FFFF80
FFFF80
FFFF80
FFFF80
FFFF80
ENDCHAR
STARTCHAR 1EA6
ENCODING 7846
SWIDTH 570 0
DWIDTH 19 0
BBX 18 32 1 0
BITMAP
E00000
F00000
718000
3BC000
03E000
07F000
000000
000000
03C000
0FF800
1FFC00
3FFC00
7FFE00
7E3E00
7C3F00
7C1F00
7C1F00
7C1F00
7C1F00
7C1F00
7C1F00
7C1F00
7C1F00
7C1F00
7C1F00
7C1F00
7C1F00
7FFFC0
7FFFC0
7FFFC0
7FFFC0
7FFFC0
ENDCHAR
STARTCHAR 1EA7
ENCODING 7847
SWIDTH 570 0
DWIDTH 19 0
BBX 18 32 1 0
BITMAP
E00000
F00000
718000
3BC000
03E000
07F000
000000
000000
03C000
0FF800
1FFC00
3FFC00
7FFE00
7E3E00
7C3F00
7C1F00
7C1F00
7C1F00
7C1F00
7C1F00
7C1F00
7C1F00
7C1F00
7C1F00
7C1F00
7C1F00
7C1F00
7FFFC0
7FFFC0
7FFFC0
7FFFC0
7FFFC0
ENDCHAR
STARTCHAR 1EA8
ENCODING 7848
SWIDTH 570 0
DWIDTH 19 0
BBX 17 34 2 0
BITMAP
001C00
001C00
001C00
001800
033800
079C00
07C000
0FE000
000000
000000
078000
1FF000
3FF800
7FF800
FFFC00
FC7C00
F87E00
F83E00
F83E00
F83E00
F83E00
F83E00
F83E00
F83E00
F83E00
F83E00
F83E00
F83E00
F83E00
FFFF80
FFFF80
FFFF80
FFFF80
FFFF80
ENDCHAR
STARTCHAR 1EA9
ENCODING 7849
SWIDTH 570 0
DWIDTH 19 0
BBX 17 34 2 0
BITMAP
001C00
001C00
001C00
001800
033800
079C00
07C000
0FE000
000000
000000
078000
1FF000
3FF800
7FF800
FFFC00
FC7C00
F87E00
F83E00
F83E00
F83E00
F83E00
F83E00
F83E00
F83E00
F83E00
F83E00
F83E00
F83E00
F83E00
FFFF80
FFFF80
FFFF80
FFFF80
FFFF80
ENDCHAR
STARTCHAR 1EAA
ENCODING 7850
SWIDTH 570 0
DWIDTH 19 0
BBX 18 32 2 0
BITMAP
003FC0
003FC0
033FC0
078080
07C000
0FE000
000000
000000
078000
1FF000
3FF800
7FF800
FFFC00
FC7C00
F87E00
F83E00
F83E00
F83E00
F83E00
F83E00
F83E00
F83E00
F83E00
F83E00
F83E00
F83E00
F83E00
FFFF80
FFFF80
FFFF80
FFFF80
FFFF80
ENDCHAR
STARTCHAR 1EAB
ENCODING 7851
SWIDTH 570 0
DWIDTH 19 0
BBX 18 32 2 0
BITMAP
003FC0
003FC0
033FC0
078080
07C000
0FE000
000000
000000
078000
1FF000
3FF800
7FF800
FFFC00
FC7C00
F87E00
F83E00
F83E00
F83E00
F83E00
F83E00
F83E00
F83E00
F83E00
F83E00
F83E00
F83E00
F83E00
FFFF80
FFFF80
FFFF80
FFFF80
FFFF80
ENDCHAR
STARTCHAR 1EAC
ENCODING 7852
SWIDTH 570 0
DWIDTH 19 0
BBX 17 39 2 -9
BITMAP
030000
078000
07C000
0FE000
000000
000000
078000
1FF000
3FF800
7FF800
FFFC00
FC7C00
F87E00
F83E00
F83E00
F83E00
F83E00
F83E00
F83E00
F83E00
F83E00
F83E00
F83E00
F83E00
F83E00
FFFF80
FFFF80
FFFF80
FFFF80
FFFF80
000000
000000
000000
010000
07C000
07C000
0FC000
07C000
078000
ENDCHAR
STARTCHAR 1EAD
ENCODING 7853
SWIDTH 570 0
DWIDTH 19 0
BBX 17 39 2 -9
BITMAP
030000
078000
07C000
0FE000
000000
000000
078000
1FF000
3FF800
7FF800
FFFC00
FC7C00
F87E00
F83E00
F83E00
F83E00
F83E00
F83E00
F83E00
F83E00
F83E00
F83E00
F83E00
F83E00
F83E00
FFFF80
FFFF80
FFFF80
FFFF80
FFFF80
000000
000000
000000
010000
07C000
07C000
0FC000
07C000
078000
ENDCHAR
STARTCHAR 1EAE
ENCODING 7854
SWIDTH 570 0
DWIDTH 19 0
BBX 17 32 2 0
BITMAP
000780
000700
000F00
0FEE00
0FE000
07C000
010000
000000
078000
1FF000
3FF800
7FF800
FFFC00
FC7C00
F87E00
F83E00
F83E00
F83E00
F83E00
F83E00
F83E00
F83E00
F83E00
F83E00
F83E00
F83E00
F83E00
FFFF80
FFFF80
FFFF80
FFFF80
FFFF80
ENDCHAR
STARTCHAR 1EAF
ENCODING 7855
SWIDTH 570 0
DWIDTH 19 0
BBX 17 32 2 0
BITMAP
000780
000700
000F00
0FEE00
0FE000
07C000
010000
000000
078000
1FF000
3FF800
7FF800
FFFC00
FC7C00
F87E00
F83E00
F83E00
F83E00
F83E00
F83E00
F83E00
F83E00
F83E00
F83E00
F83E00
F83E00
F83E00
FFFF80
FFFF80
FFFF80
FFFF80
FFFF80
ENDCHAR
STARTCHAR 1EB0
ENCODING 7856
SWIDTH 570 0
DWIDTH 19 0
BBX 19 32 0 0
BITMAP
E00000
700000
700000
3FF800
03F000
01F000
004000
000000
01E000
07FC00
0FFE00
1FFE00
3FFF00
3F1F00
3E1F80
3E0F80
3E0F80
3E0F80
3E0F80
3E0F80
3E0F80
3E0F80
3E0F80
3E0F80
3E0F80
3E0F80
3E0F80
3FFFE0
3FFFE0
3FFFE0
3FFFE0
3FFFE0
ENDCHAR
STARTCHAR 1EB1
ENCODING 7857
SWIDTH 570 0
DWIDTH 19 0
BBX 19 32 0 0
BITMAP
E00000
700000
700000
3FF800
03F000
01F000
004000
000000
01E000
07FC00
0FFE00
1FFE00
3FFF00
3F1F00
3E1F80
3E0F80
3E0F80
3E0F80
3E0F80
3E0F80
3E0F80
3E0F80
3E0F80
3E0F80
3E0F80
3E0F80
3E0F80
3FFFE0
3FFFE0
3FFFE0
3FFFE0
3FFFE0
ENDCHAR
STARTCHAR 1EB2
ENCODING 7858
SWIDTH 570 0
DWIDTH 19 0
BBX 17 33 2 0
BITMAP
000700
000700
000E00
000E00
0FEE00
0FEE00
07C000
010000
000000
078000
1FF000
3FF800
7FF800
FFFC00
FC7C00
F87E00
F83E00
F83E00
F83E00
F83E00
F83E00
F83E00
F83E00
F83E00
F83E00
F83E00
F83E00
F83E00
FFFF80
FFFF80
FFFF80
FFFF80
FFFF80
ENDCHAR
STARTCHAR 1EB3
ENCODING 7859
SWIDTH 570 0
DWIDTH 19 0
BBX 17 33 2 0
BITMAP
000700
000700
000E00
000E00
0FEE00
0FEE00
07C000
010000
000000
078000
1FF000
3FF800
7FF800
FFFC00
FC7C00
F87E00
F83E00
F83E00
F83E00
F83E00
F83E00
F83E00
F83E00
F83E00
F83E00
F83E00
F83E00
F83E00
FFFF80
FFFF80
FFFF80
FFFF80
FFFF80
ENDCHAR
STARTCHAR 1EB4
ENCODING 7860
SWIDTH 570 0
DWIDTH 19 0
BBX 17 34 2 0
BITMAP
01C000
03FC00
03FC00
027C00
000000
0FE000
0FE000
07C000
010000
000000
078000
1FF000
3FF800
7FF800
FFFC00
FC7C00
F87E00
F83E00
F83E00
F83E00
F83E00
F83E00
F83E00
F83E00
F83E00
F83E00
F83E00
F83E00
F83E00
FFFF80
FFFF80
FFFF80
FFFF80
FFFF80
ENDCHAR
STARTCHAR 1EB5
ENCODING 7861
SWIDTH 570 0
DWIDTH 19 0
BBX 17 34 2 0
BITMAP
01C000
03FC00
03FC00
027C00
000000
0FE000
0FE000
07C000
010000
000000
078000
1FF000
3FF800
7FF800
FFFC00
FC7C00
F87E00
F83E00
F83E00
F83E00
F83E00
F83E00
F83E00
F83E00
F83E00
F83E00
F83E00
F83E00
F83E00
FFFF80
FFFF80
FFFF80
FFFF80
FFFF80
ENDCHAR
STARTCHAR 1EB6
ENCODING 7862
SWIDTH 570 0
DWIDTH 19 0
BBX 17 38 2 -9
BITMAP
0FE000
0FE000
07C000
010000
000000
078000
1FF000
3FF800
7FF800
FFFC00
FC7C00
F87E00
F83E00
F83E00
F83E00
F83E00
F83E00
F83E00
F83E00
F83E00
F83E00
F83E00
F83E00
F83E00
FFFF80
FFFF80
FFFF80
FFFF80
FFFF80
000000
000000
000000
010000
07C000
07C000
0FC000
07C000
078000
ENDCHAR
STARTCHAR 1EB7
ENCODING 7863
SWIDTH 570 0
DWIDTH 19 0
BBX 17 38 2 -9
BITMAP
0FE000
0FE000
07C000
010000
000000
078000
1FF000
3FF800
7FF800
FFFC00
FC7C00
F87E00
F83E00
F83E00
F83E00
F83E00
F83E00
F83E00
F83E00
F83E00
F83E00
F83E00
F83E00
F83E00
FFFF80
FFFF80
FFFF80
FFFF80
FFFF80
000000
000000
000000
010000
07C000
07C000
0FC000
07C000
078000
ENDCHAR
STARTCHAR 1EB8
ENCODING 7864
SWIDTH 510 0
DWIDTH 17 0
BBX 16 32 1 -9
BITMAP
3FF0
3FF0
3FF0
3FF0
3E00
3E00
3E00
3E00
3E00
FFF8
FFF8
FFF8
FFF8
3E00
3E00
3E00
3E00
3E00
3FFF
3FFF
3FFF
3FFF
3FFF
0000
0000
0000
0040
01E0
03F0
03F0
01F0
01E0
ENDCHAR
STARTCHAR 1EB9
ENCODING 7865
SWIDTH 510 0
DWIDTH 17 0
BBX 16 32 1 -9
BITMAP
3FF0
3FF0
3FF0
3FF0
3E00
3E00
3E00
3E00
3E00
FFF8
FFF8
FFF8
FFF8
3E00
3E00
3E00
3E00
3E00
3FFF
3FFF
3FFF
3FFF
3FFF
0000
0000
0000
0040
01E0
03F0
03F0
01F0
01E0
ENDCHAR
STARTCHAR 1EBA
ENCODING 7866
SWIDTH 510 0
DWIDTH 17 0
BBX 16 32 1 0
BITMAP
0700
0380
0380
0700
0700
0700
0700
0000
0000
3FF0
3FF0
3FF0
3FF0
3E00
3E00
3E00
3E00
3E00
FFF8
FFF8
FFF8
FFF8
3E00
3E00
3E00
3E00
3E00
3FFF
3FFF
3FFF
3FFF
3FFF
ENDCHAR
STARTCHAR 1EBB
ENCODING 7867
SWIDTH 510 0
DWIDTH 17 0
BBX 16 32 1 0
BITMAP
0700
0380
0380
0700
0700
0700
0700
0000
0000
3FF0
3FF0
3FF0
3FF0
3E00
3E00
3E00
3E00
3E00
FFF8
FFF8
FFF8
FFF8
3E00
3E00
3E00
3E00
3E00
3FFF
3FFF
3FFF
3FFF
3FFF
ENDCHAR
STARTCHAR 1EBC
ENCODING 7868
SWIDTH 510 0
DWIDTH 17 0
BBX 16 30 1 0
BITMAP
1E00
3FC0
3FC0
21C0
0000
0000
0000
3FF0
3FF0
3FF0
3FF0
3E00
3E00
3E00
3E00
3E00
FFF8
FFF8
FFF8
FFF8
3E00
3E00
3E00
3E00
3E00
3FFF
3FFF
3FFF
3FFF
3FFF
ENDCHAR
STARTCHAR 1EBD
ENCODING 7869
SWIDTH 510 0
DWIDTH 17 0
BBX 16 30 1 0
BITMAP
1E00
3FC0
3FC0
21C0
0000
0000
0000
3FF0
3FF0
3FF0
3FF0
3E00
3E00
3E00
3E00
3E00
FFF8
FFF8
FFF8
FFF8
3E00
3E00
3E00
3E00
3E00
3FFF
3FFF
3FFF
3FFF
3FFF
ENDCHAR
STARTCHAR 1EBE
ENCODING 7870
SWIDTH 510 0
DWIDTH 17 0
BBX 16 32 1 0
BITMAP
000E
001E
031C
0798
0FC0
0FC0
1020
0000
0000
3FF0
3FF0
3FF0
3FF0
3E00
3E00
3E00
3E00
3E00
FFF8
FFF8
FFF8
FFF8
3E00
3E00
3E00
3E00
3E00
3FFF
3FFF
3FFF
3FFF
3FFF
ENDCHAR
STARTCHAR 1EBF
ENCODING 7871
SWIDTH 510 0
DWIDTH 17 0
BBX 16 32 1 0
BITMAP
000E
001E
031C
0798
0FC0
0FC0
1020
0000
0000
3FF0
3FF0
3FF0
3FF0
3E00
3E00
3E00
3E00
3E00
FFF8
FFF8
FFF8
FFF8
3E00
3E00
3E00
3E00
3E00
3FFF
3FFF
3FFF
3FFF
3FFF
ENDCHAR
STARTCHAR 1EC0
ENCODING 7872
SWIDTH 510 0
DWIDTH 17 0
BBX 17 32 0 0
BITMAP
E00000
F00000
718000
33C000
07E000
07E000
081000
000000
000000
1FF800
1FF800
1FF800
1FF800
1F0000
1F0000
1F0000
1F0000
1F0000
7FFC00
7FFC00
7FFC00
7FFC00
1F0000
1F0000
1F0000
1F0000
1F0000
1FFF80
1FFF80
1FFF80
1FFF80
1FFF80
ENDCHAR
STARTCHAR 1EC1
ENCODING 7873
SWIDTH 510 0
DWIDTH 17 0
BBX 17 32 0 0
BITMAP
E00000
F00000
718000
33C000
07E000
07E000
081000
000000
000000
1FF800
1FF800
1FF800
1FF800
1F0000
1F0000
1F0000
1F0000
1F0000
7FFC00
7FFC00
7FFC00
7FFC00
1F0000
1F0000
1F0000
1F0000
1F0000
1FFF80
1FFF80
1FFF80
1FFF80
1FFF80
ENDCHAR
STARTCHAR 1EC2
ENCODING 7874
SWIDTH 510 0
DWIDTH 17 0
BBX 16 34 1 0
BITMAP
001C
001C
001C
0038
0338
07B8
0FC0
0FC0
1020
0000
0000
3FF0
3FF0
3FF0
3FF0
3E00
3E00
3E00
3E00
3E00
FFF8
FFF8
FFF8
FFF8
3E00
3E00
3E00
3E00
3E00
3FFF
3FFF
3FFF
3FFF
3FFF
ENDCHAR
STARTCHAR 1EC3
ENCODING 7875
SWIDTH 510 0
DWIDTH 17 0
BBX 16 34 1 0
BITMAP
001C
001C
001C
0038
0338
07B8
0FC0
0FC0
1020
0000
0000
3FF0
3FF0
3FF0
3FF0
3E00
3E00
3E00
3E00
3E00
FFF8
FFF8
FFF8
FFF8
3E00
3E00
3E00
3E00
3E00
3FFF
3FFF
3FFF
3FFF
3FFF
ENDCHAR
STARTCHAR 1EC4
ENCODING 7876
SWIDTH 510 0
DWIDTH 17 0
BBX 18 32 1 0
BITMAP
003FC0
003FC0
033FC0
078100
0FC000
0FC000
102000
000000
000000
3FF000
3FF000
3FF000
3FF000
3E0000
3E0000
3E0000
3E0000
3E0000
FFF800
FFF800
FFF800
FFF800
3E0000
3E0000
3E0000
3E0000
3E0000
3FFF00
3FFF00
3FFF00
3FFF00
3FFF00
ENDCHAR
STARTCHAR 1EC5
ENCODING 7877
SWIDTH 510 0
DWIDTH 17 0
BBX 18 32 1 0
BITMAP
003FC0
003FC0
033FC0
078100
0FC000
0FC000
102000
000000
000000
3FF000
3FF000
3FF000
3FF000
3E0000
3E0000
3E0000
3E0000
3E0000
FFF800
FFF800
FFF800
FFF800
3E0000
3E0000
3E0000
3E0000
3E0000
3FFF00
3FFF00
3FFF00
3FFF00
3FFF00
ENDCHAR
STARTCHAR 1EC6
ENCODING 7878
SWIDTH 510 0
DWIDTH 17 0
BBX 16 39 1 -9
BITMAP
0300
0780
0FC0
0FC0
1020
0000
0000
3FF0
3FF0
3FF0
3FF0
3E00
3E00
3E00
3E00
3E00
FFF8
FFF8
FFF8
FFF8
3E00
3E00
3E00
3E00
3E00
3FFF
3FFF
3FFF
3FFF
3FFF
0000
0000
0000
0040
01E0
03F0
03F0
01F0
01E0
ENDCHAR
STARTCHAR 1EC7
ENCODING 7879
SWIDTH 510 0
DWIDTH 17 0
BBX 16 39 1 -9
BITMAP
0300
0780
0FC0
0FC0
1020
0000
0000
3FF0
3FF0
3FF0
3FF0
3E00
3E00
3E00
3E00
3E00
FFF8
FFF8
FFF8
FFF8
3E00
3E00
3E00
3E00
3E00
3FFF
3FFF
3FFF
3FFF
3FFF
0000
0000
0000
0040
01E0
03F0
03F0
01F0
01E0
ENDCHAR
STARTCHAR 1EC8
ENCODING 7880
SWIDTH 240 0
DWIDTH 8 0
BBX 5 23 2 0
BITMAP
70
70
70
70
E0
E0
70
00
00
F8
F8
F8
F8
F8
F8
F8
F8
F8
F8
F8
F8
F8
F8
ENDCHAR
STARTCHAR 1EC9
ENCODING 7881
SWIDTH 240 0
DWIDTH 8 0
BBX 5 23 2 0
BITMAP
70
70
70
70
E0
E0
70
00
00
F8
F8
F8
F8
F8
F8
F8
F8
F8
F8
F8
F8
F8
F8
ENDCHAR
STARTCHAR 1ECA
ENCODING 7882
SWIDTH 240 0
DWIDTH 8 0
BBX 10 35 -1 -8
BITMAP
0400
0C00
1E00
FFC0
3F00
1F00
1F00
3300
2000
0000
0000
0000
1F00
1F00
1F00
1F00
1F00
1F00
1F00
1F00
1F00
1F00
1F00
1F00
1F00
1F00
0000
0000
0000
0400
1E00
3F00
3F00
1F00
1E00
ENDCHAR
STARTCHAR 1ECB
ENCODING 7883
SWIDTH 240 0
DWIDTH 8 0
BBX 10 35 -1 -8
BITMAP
0400
0C00
1E00
FFC0
3F00
1F00
1F00
3300
2000
0000
0000
0000
1F00
1F00
1F00
1F00
1F00
1F00
1F00
1F00
1F00
1F00
1F00
1F00
1F00
1F00
0000
0000
0000
0400
1E00
3F00
3F00
1F00
1E00
ENDCHAR
STARTCHAR 1ECC
ENCODING 7884
SWIDTH 810 0
DWIDTH 27 0
BBX 25 33 1 -9
BITMAP
003F0000
01FFE000
07FFF000
0FFFFC00
1FFFFE00
3FC0FE00
3F003F00
7E001F00
7C001F80
7C000F80
F8000F80
F8000F80
F8000F80
F8000F80
FC000F80
7C000F80
7C001F80
7E003F00
3F007F00
1FE1FE00
1FFFFC00
0FFFF800
03FFF000
00FFC000
000C0000
00000000
00000000
00080000
001E0000
003F0000
003F0000
003E0000
001E0000
ENDCHAR
STARTCHAR 1ECD
ENCODING 7885
SWIDTH 810 0
DWIDTH 27 0
BBX 25 33 1 -9
BITMAP
003F0000
01FFE000
07FFF000
0FFFFC00
1FFFFE00
3FC0FE00
3F003F00
7E001F00
7C001F80
7C000F80
F8000F80
F8000F80
F8000F80
F8000F80
FC000F80
7C000F80
7C001F80
7E003F00
3F007F00
1FE1FE00
1FFFFC00
0FFFF800
03FFF000
00FFC000
000C0000
00000000
00000000
00080000
001E0000
003F0000
003F0000
003E0000
001E0000
ENDCHAR
STARTCHAR 1ECE
ENCODING 7886
SWIDTH 810 0
DWIDTH 27 0
BBX 25 33 1 -1
BITMAP
001C0000
000E0000
000C0000
001C0000
001C0000
001C0000
001C0000
00000000
003F0000
01FFE000
07FFF000
0FFFFC00
1FFFFE00
3FC0FE00
3F003F00
7E001F00
7C001F80
7C000F80
F8000F80
F8000F80
F8000F80
F8000F80
FC000F80
7C000F80
7C001F80
7E003F00
3F007F00
1FE1FE00
1FFFFC00
0FFFF800
03FFF000
00FFC000
000C0000
ENDCHAR
STARTCHAR 1ECF
ENCODING 7887
SWIDTH 810 0
DWIDTH 27 0
BBX 25 33 1 -1
BITMAP
001C0000
000E0000
000C0000
001C0000
001C0000
001C0000
001C0000
00000000
003F0000
01FFE000
07FFF000
0FFFFC00
1FFFFE00
3FC0FE00
3F003F00
7E001F00
7C001F80
7C000F80
F8000F80
F8000F80
F8000F80
F8000F80
FC000F80
7C000F80
7C001F80
7E003F00
3F007F00
1FE1FE00
1FFFFC00
0FFFF800
03FFF000
00FFC000
000C0000
ENDCHAR
STARTCHAR 1ED0
ENCODING 7888
SWIDTH 810 0
DWIDTH 27 0
BBX 25 33 1 -1
BITMAP
00003800
00007800
000C7000
001EE000
003E0000
007F0000
00000000
00000000
003F0000
01FFE000
07FFF000
0FFFFC00
1FFFFE00
3FC0FE00
3F003F00
7E001F00
7C001F80
7C000F80
F8000F80
F8000F80
F8000F80
F8000F80
FC000F80
7C000F80
7C001F80
7E003F00
3F007F00
1FE1FE00
1FFFFC00
0FFFF800
03FFF000
00FFC000
000C0000
ENDCHAR
STARTCHAR 1ED1
ENCODING 7889
SWIDTH 810 0
DWIDTH 27 0
BBX 25 33 1 -1
BITMAP
00003800
00007800
000C7000
001EE000
003E0000
007F0000
00000000
00000000
003F0000
01FFE000
07FFF000
0FFFFC00
1FFFFE00
3FC0FE00
3F003F00
7E001F00
7C001F80
7C000F80
F8000F80
F8000F80
F8000F80
F8000F80
FC000F80
7C000F80
7C001F80
7E003F00
3F007F00
1FE1FE00
1FFFFC00
0FFFF800
03FFF000
00FFC000
000C0000
ENDCHAR
STARTCHAR 1ED2
ENCODING 7890
SWIDTH 810 0
DWIDTH 27 0
BBX 25 33 1 -1
BITMAP
0F000000
07000000
038C0000
039E0000
003E0000
007F0000
00000000
00000000
003F0000
01FFE000
07FFF000
0FFFFC00
1FFFFE00
3FC0FE00
3F003F00
7E001F00
7C001F80
7C000F80
F8000F80
F8000F80
F8000F80
F8000F80
FC000F80
7C000F80
7C001F80
7E003F00
3F007F00
1FE1FE00
1FFFFC00
0FFFF800
03FFF000
00FFC000
000C0000
ENDCHAR
STARTCHAR 1ED3
ENCODING 7891
SWIDTH 810 0
DWIDTH 27 0
BBX 25 33 1 -1
BITMAP
0F000000
07000000
038C0000
039E0000
003E0000
007F0000
00000000
00000000
003F0000
01FFE000
07FFF000
0FFFFC00
1FFFFE00
3FC0FE00
3F003F00
7E001F00
7C001F80
7C000F80
F8000F80
F8000F80
F8000F80
F8000F80
FC000F80
7C000F80
7C001F80
7E003F00
3F007F00
1FE1FE00
1FFFFC00
0FFFF800
03FFF000
00FFC000
000C0000
ENDCHAR
STARTCHAR 1ED4
ENCODING 7892
SWIDTH 810 0
DWIDTH 27 0
BBX 25 35 1 -1
BITMAP
00007000
00007000
00006000
0000E000
000CE000
001EE000
003E0000
007F0000
00000000
00000000
003F0000
01FFE000
07FFF000
0FFFFC00
1FFFFE00
3FC0FE00
3F003F00
7E001F00
7C001F80
7C000F80
F8000F80
F8000F80
F8000F80
F8000F80
FC000F80
7C000F80
7C001F80
7E003F00
3F007F00
1FE1FE00
1FFFFC00
0FFFF800
03FFF000
00FFC000
000C0000
ENDCHAR
STARTCHAR 1ED5
ENCODING 7893
SWIDTH 810 0
DWIDTH 27 0
BBX 25 35 1 -1
BITMAP
00007000
00007000
00006000
0000E000
000CE000
001EE000
003E0000
007F0000
00000000
00000000
003F0000
01FFE000
07FFF000
0FFFFC00
1FFFFE00
3FC0FE00
3F003F00
7E001F00
7C001F80
7C000F80
F8000F80
F8000F80
F8000F80
F8000F80
FC000F80
7C000F80
7C001F80
7E003F00
3F007F00
1FE1FE00
1FFFFC00
0FFFF800
03FFF000
00FFC000
000C0000
ENDCHAR
STARTCHAR 1ED6
ENCODING 7894
SWIDTH 810 0
DWIDTH 27 0
BBX 25 33 1 -1
BITMAP
0000FB00
0000FF00
000CFF00
001E0600
003E0000
007F0000
00000000
00000000
003F0000
01FFE000
07FFF000
0FFFFC00
1FFFFE00
3FC0FE00
3F003F00
7E001F00
7C001F80
7C000F80
F8000F80
F8000F80
F8000F80
F8000F80
FC000F80
7C000F80
7C001F80
7E003F00
3F007F00
1FE1FE00
1FFFFC00
0FFFF800
03FFF000
00FFC000
000C0000
ENDCHAR
STARTCHAR 1ED7
ENCODING 7895
SWIDTH 810 0
DWIDTH 27 0
BBX 25 33 1 -1
BITMAP
0000FB00
0000FF00
000CFF00
001E0600
003E0000
007F0000
00000000
00000000
003F0000
01FFE000
07FFF000
0FFFFC00
1FFFFE00
3FC0FE00
3F003F00
7E001F00
7C001F80
7C000F80
F8000F80
F8000F80
F8000F80
F8000F80
FC000F80
7C000F80
7C001F80
7E003F00
3F007F00
1FE1FE00
1FFFFC00
0FFFF800
03FFF000
00FFC000
000C0000
ENDCHAR
STARTCHAR 1ED8
ENCODING 7896
SWIDTH 810 0
DWIDTH 27 0
BBX 25 39 1 -9
BITMAP
000C0000
001E0000
003E0000
007F0000
00000000
00000000
003F0000
01FFE000
07FFF000
0FFFFC00
1FFFFE00
3FC0FE00
3F003F00
7E001F00
7C001F80
7C000F80
F8000F80
F8000F80
F8000F80
F8000F80
FC000F80
7C000F80
7C001F80
7E003F00
3F007F00
1FE1FE00
1FFFFC00
0FFFF800
03FFF000
00FFC000
000C0000
00000000
00000000
00080000
001E0000
003F0000
003F0000
003E0000
001E0000
ENDCHAR
STARTCHAR 1ED9
ENCODING 7897
SWIDTH 810 0
DWIDTH 27 0
BBX 25 39 1 -9
BITMAP
000C0000
001E0000
003E0000
007F0000
00000000
00000000
003F0000
01FFE000
07FFF000
0FFFFC00
1FFFFE00
3FC0FE00
3F003F00
7E001F00
7C001F80
7C000F80
F8000F80
F8000F80
F8000F80
F8000F80
FC000F80
7C000F80
7C001F80
7E003F00
3F007F00
1FE1FE00
1FFFFC00
0FFFF800
03FFF000
00FFC000
000C0000
00000000
00000000
00080000
001E0000
003F0000
003F0000
003E0000
001E0000
ENDCHAR
STARTCHAR 1EDA
ENCODING 7898
SWIDTH 810 0
DWIDTH 27 0
BBX 25 31 1 -1
BITMAP
00078000
00070000
000E0000
000E0000
00000700
00000700
003F0700
01FFE700
07FFF600
0FFFFC00
1FFFFE00
3FC0FE00
3F003F00
7E001F00
7C001F80
7C000F80
F8000F80
F8000F80
F8000F80
F8000F80
FC000F80
7C000F80
7C001F80
7E003F00
3F007F00
1FE1FE00
1FFFFC00
0FFFF800
03FFF000
00FFC000
000C0000
ENDCHAR
STARTCHAR 1EDB
ENCODING 7899
SWIDTH 810 0
DWIDTH 27 0
BBX 25 31 1 -1
BITMAP
00078000
00070000
000E0000
000E0000
00000700
00000700
003F0700
01FFE700
07FFF600
0FFFFC00
1FFFFE00
3FC0FE00
3F003F00
7E001F00
7C001F80
7C000F80
F8000F80
F8000F80
F8000F80
F8000F80
FC000F80
7C000F80
7C001F80
7E003F00
3F007F00
1FE1FE00
1FFFFC00
0FFFF800
03FFF000
00FFC000
000C0000
ENDCHAR
STARTCHAR 1EDC
ENCODING 7900
SWIDTH 810 0
DWIDTH 27 0
BBX 25 31 1 -1
BITMAP
00700000
00380000
00380000
001C0000
00000700
00000700
003F0700
01FFE700
07FFF600
0FFFFC00
1FFFFE00
3FC0FE00
3F003F00
7E001F00
7C001F80
7C000F80
F8000F80
F8000F80
F8000F80
F8000F80
FC000F80
7C000F80
7C001F80
7E003F00
3F007F00
1FE1FE00
1FFFFC00
0FFFF800
03FFF000
00FFC000
000C0000
ENDCHAR
STARTCHAR 1EDD
ENCODING 7901
SWIDTH 810 0
DWIDTH 27 0
BBX 25 31 1 -1
BITMAP
00700000
00380000
00380000
001C0000
00000700
00000700
003F0700
01FFE700
07FFF600
0FFFFC00
1FFFFE00
3FC0FE00
3F003F00
7E001F00
7C001F80
7C000F80
F8000F80
F8000F80
F8000F80
F8000F80
FC000F80
7C000F80
7C001F80
7E003F00
3F007F00
1FE1FE00
1FFFFC00
0FFFF800
03FFF000
00FFC000
000C0000
ENDCHAR
STARTCHAR 1EDE
ENCODING 7902
SWIDTH 810 0
DWIDTH 27 0
BBX 25 33 1 -1
BITMAP
001C0000
000E0000
000C0000
001C0000
001C0000
001C0000
001C0700
00000700
003F0700
01FFE700
07FFF600
0FFFFC00
1FFFFE00
3FC0FE00
3F003F00
7E001F00
7C001F80
7C000F80
F8000F80
F8000F80
F8000F80
F8000F80
FC000F80
7C000F80
7C001F80
7E003F00
3F007F00
1FE1FE00
1FFFFC00
0FFFF800
03FFF000
00FFC000
000C0000
ENDCHAR
STARTCHAR 1EDF
ENCODING 7903
SWIDTH 810 0
DWIDTH 27 0
BBX 25 33 1 -1
BITMAP
001C0000
000E0000
000C0000
001C0000
001C0000
001C0000
001C0700
00000700
003F0700
01FFE700
07FFF600
0FFFFC00
1FFFFE00
3FC0FE00
3F003F00
7E001F00
7C001F80
7C000F80
F8000F80
F8000F80
F8000F80
F8000F80
FC000F80
7C000F80
7C001F80
7E003F00
3F007F00
1FE1FE00
1FFFFC00
0FFFF800
03FFF000
00FFC000
000C0000
ENDCHAR
STARTCHAR 1EE0
ENCODING 7904
SWIDTH 810 0
DWIDTH 27 0
BBX 25 31 1 -1
BITMAP
00700000
00FF0000
00FF0000
000F0000
00000700
00000700
003F0700
01FFE700
07FFF600
0FFFFC00
1FFFFE00
3FC0FE00
3F003F00
7E001F00
7C001F80
7C000F80
F8000F80
F8000F80
F8000F80
F8000F80
FC000F80
7C000F80
7C001F80
7E003F00
3F007F00
1FE1FE00
1FFFFC00
0FFFF800
03FFF000
00FFC000
000C0000
ENDCHAR
STARTCHAR 1EE1
ENCODING 7905
SWIDTH 810 0
DWIDTH 27 0
BBX 25 31 1 -1
BITMAP
00700000
00FF0000
00FF0000
000F0000
00000700
00000700
003F0700
01FFE700
07FFF600
0FFFFC00
1FFFFE00
3FC0FE00
3F003F00
7E001F00
7C001F80
7C000F80
F8000F80
F8000F80
F8000F80
F8000F80
FC000F80
7C000F80
7C001F80
7E003F00
3F007F00
1FE1FE00
1FFFFC00
0FFFF800
03FFF000
00FFC000
000C0000
ENDCHAR
STARTCHAR 1EE2
ENCODING 7906
SWIDTH 810 0
DWIDTH 27 0
BBX 25 35 1 -9
BITMAP
00000700
00000700
003F0700
01FFE700
07FFF600
0FFFFC00
1FFFFE00
3FC0FE00
3F003F00
7E001F00
7C001F80
7C000F80
F8000F80
F8000F80
F8000F80
F8000F80
FC000F80
7C000F80
7C001F80
7E003F00
3F007F00
1FE1FE00
1FFFFC00
0FFFF800
03FFF000
00FFC000
000C0000
00000000
00000000
00080000
001E0000
003F0000
003F0000
003E0000
001E0000
ENDCHAR
STARTCHAR 1EE3
ENCODING 7907
SWIDTH 810 0
DWIDTH 27 0
BBX 25 35 1 -9
BITMAP
00000700
00000700
003F0700
01FFE700
07FFF600
0FFFFC00
1FFFFE00
3FC0FE00
3F003F00
7E001F00
7C001F80
7C000F80
F8000F80
F8000F80
F8000F80
F8000F80
FC000F80
7C000F80
7C001F80
7E003F00
3F007F00
1FE1FE00
1FFFFC00
0FFFF800
03FFF000
00FFC000
000C0000
00000000
00000000
00080000
001E0000
003F0000
003F0000
003E0000
001E0000
ENDCHAR
STARTCHAR 1EE4
ENCODING 7908
SWIDTH 540 0
DWIDTH 18 0
BBX 15 32 2 -9
BITMAP
F83E
F83E
F83E
F83E
F83E
F83E
F83E
F83E
F83E
F83E
F83E
F83E
F83E
F83E
F83E
F83E
F83E
F87C
FCFC
FFFC
7FF8
3FF0
1FE0
0100
0000
0000
0000
0780
0FC0
0FC0
0FC0
0780
ENDCHAR
STARTCHAR 1EE5
ENCODING 7909
SWIDTH 540 0
DWIDTH 18 0
BBX 15 32 2 -9
BITMAP
F83E
F83E
F83E
F83E
F83E
F83E
F83E
F83E
F83E
F83E
F83E
F83E
F83E
F83E
F83E
F83E
F83E
F87C
FCFC
FFFC
7FF8
3FF0
1FE0
0100
0000
0000
0000
0780
0FC0
0FC0
0FC0
0780
ENDCHAR
STARTCHAR 1EE6
ENCODING 7910
SWIDTH 540 0
DWIDTH 18 0
BBX 15 33 2 -1
BITMAP
0300
0380
0380
0700
0700
0700
0700
0000
0000
F83E
F83E
F83E
F83E
F83E
F83E
F83E
F83E
F83E
F83E
F83E
F83E
F83E
F83E
F83E
F83E
F83E
F87C
FCFC
FFFC
7FF8
3FF0
1FE0
0100
ENDCHAR
STARTCHAR 1EE7
ENCODING 7911
SWIDTH 540 0
DWIDTH 18 0
BBX 15 33 2 -1
BITMAP
0300
0380
0380
0700
0700
0700
0700
0000
0000
F83E
F83E
F83E
F83E
F83E
F83E
F83E
F83E
F83E
F83E
F83E
F83E
F83E
F83E
F83E
F83E
F83E
F87C
FCFC
FFFC
7FF8
3FF0
1FE0
0100
ENDCHAR
STARTCHAR 1EE8
ENCODING 7912
SWIDTH 540 0
DWIDTH 18 0
BBX 19 31 2 -1
BITMAP
01E000
01C000
01C000
038000
0001E0
0001C0
0001C0
F83FC0
F83FC0
F83E00
F83E00
F83E00
F83E00
F83E00
F83E00
F83E00
F83E00
F83E00
F83E00
F83E00
F83E00
F83E00
F83E00
F83E00
F87C00
FCFC00
FFFC00
7FF800
3FF000
1FE000
010000
ENDCHAR
STARTCHAR 1EE9
ENCODING 7913
SWIDTH 540 0
DWIDTH 18 0
BBX 19 31 2 -1
BITMAP
01E000
01C000
01C000
038000
0001E0
0001C0
0001C0
F83FC0
F83FC0
F83E00
F83E00
F83E00
F83E00
F83E00
F83E00
F83E00
F83E00
F83E00
F83E00
F83E00
F83E00
F83E00
F83E00
F83E00
F87C00
FCFC00
FFFC00
7FF800
3FF000
1FE000
010000
ENDCHAR
STARTCHAR 1EEA
ENCODING 7914
SWIDTH 540 0
DWIDTH 18 0
BBX 19 31 2 -1
BITMAP
1E0000
0E0000
070000
070000
0001E0
0001C0
0001C0
F83FC0
F83FC0
F83E00
F83E00
F83E00
F83E00
F83E00
F83E00
F83E00
F83E00
F83E00
F83E00
F83E00
F83E00
F83E00
F83E00
F83E00
F87C00
FCFC00
FFFC00
7FF800
3FF000
1FE000
010000
ENDCHAR
STARTCHAR 1EEB
ENCODING 7915
SWIDTH 540 0
DWIDTH 18 0
BBX 19 31 2 -1
BITMAP
1E0000
0E0000
070000
070000
0001E0
0001C0
0001C0
F83FC0
F83FC0
F83E00
F83E00
F83E00
F83E00
F83E00
F83E00
F83E00
F83E00
F83E00
F83E00
F83E00
F83E00
F83E00
F83E00
F83E00
F87C00
FCFC00
FFFC00
7FF800
3FF000
1FE000
010000
ENDCHAR
STARTCHAR 1EEC
ENCODING 7916
SWIDTH 540 0
DWIDTH 18 0
BBX 19 33 2 -1
BITMAP
030000
038000
038000
070000
070000
070000
0701E0
0001C0
0001C0
F83FC0
F83FC0
F83E00
F83E00
F83E00
F83E00
F83E00
F83E00
F83E00
F83E00
F83E00
F83E00
F83E00
F83E00
F83E00
F83E00
F83E00
F87C00
FCFC00
FFFC00
7FF800
3FF000
1FE000
010000
ENDCHAR
STARTCHAR 1EED
ENCODING 7917
SWIDTH 540 0
DWIDTH 18 0
BBX 19 33 2 -1
BITMAP
030000
038000
038000
070000
070000
070000
0701E0
0001C0
0001C0
F83FC0
F83FC0
F83E00
F83E00
F83E00
F83E00
F83E00
F83E00
F83E00
F83E00
F83E00
F83E00
F83E00
F83E00
F83E00
F83E00
F83E00
F87C00
FCFC00
FFFC00
7FF800
3FF000
1FE000
010000
ENDCHAR
STARTCHAR 1EEE
ENCODING 7918
SWIDTH 540 0
DWIDTH 18 0
BBX 19 31 2 -1
BITMAP
1E2000
1FE000
1FE000
01C000
0001E0
0001C0
0001C0
F83FC0
F83FC0
F83E00
F83E00
F83E00
F83E00
F83E00
F83E00
F83E00
F83E00
F83E00
F83E00
F83E00
F83E00
F83E00
F83E00
F83E00
F87C00
FCFC00
FFFC00
7FF800
3FF000
1FE000
010000
ENDCHAR
STARTCHAR 1EEF
ENCODING 7919
SWIDTH 540 0
DWIDTH 18 0
BBX 19 31 2 -1
BITMAP
1E2000
1FE000
1FE000
01C000
0001E0
0001C0
0001C0
F83FC0
F83FC0
F83E00
F83E00
F83E00
F83E00
F83E00
F83E00
F83E00
F83E00
F83E00
F83E00
F83E00
F83E00
F83E00
F83E00
F83E00
F87C00
FCFC00
FFFC00
7FF800
3FF000
1FE000
010000
ENDCHAR
STARTCHAR 1EF0
ENCODING 7920
SWIDTH 540 0
DWIDTH 18 0
BBX 19 35 2 -9
BITMAP
0001E0
0001C0
0001C0
F83FC0
F83FC0
F83E00
F83E00
F83E00
F83E00
F83E00
F83E00
F83E00
F83E00
F83E00
F83E00
F83E00
F83E00
F83E00
F83E00
F83E00
F87C00
FCFC00
FFFC00
7FF800
3FF000
1FE000
010000
000000
000000
000000
078000
0FC000
0FC000
0FC000
078000
ENDCHAR
STARTCHAR 1EF1
ENCODING 7921
SWIDTH 540 0
DWIDTH 18 0
BBX 19 35 2 -9
BITMAP
0001E0
0001C0
0001C0
F83FC0
F83FC0
F83E00
F83E00
F83E00
F83E00
F83E00
F83E00
F83E00
F83E00
F83E00
F83E00
F83E00
F83E00
F83E00
F83E00
F83E00
F87C00
FCFC00
FFFC00
7FF800
3FF000
1FE000
010000
000000
000000
000000
078000
0FC000
0FC000
0FC000
078000
ENDCHAR
STARTCHAR 1EF2
ENCODING 7922
SWIDTH 510 0
DWIDTH 17 0
BBX 15 30 1 0
BITMAP
0F00
0700
0700
0380
0000
0000
0000
F83E
F83E
F83E
F83E
F83E
F83E
F83E
F83E
F83E
F83E
F83E
7C3E
7C3E
7FFE
3FFC
3FF8
0FF0
07C0
07C0
07C0
07C0
07C0
07C0
ENDCHAR
STARTCHAR 1EF3
ENCODING 7923
SWIDTH 510 0
DWIDTH 17 0
BBX 15 30 1 0
BITMAP
0F00
0700
0700
0380
0000
0000
0000
F83E
F83E
F83E
F83E
F83E
F83E
F83E
F83E
F83E
F83E
F83E
7C3E
7C3E
7FFE
3FFC
3FF8
0FF0
07C0
07C0
07C0
07C0
07C0
07C0
ENDCHAR
STARTCHAR 1EF4
ENCODING 7924
SWIDTH 510 0
DWIDTH 17 0
BBX 15 32 1 -9
BITMAP
F83E
F83E
F83E
F83E
F83E
F83E
F83E
F83E
F83E
F83E
F83E
7C3E
7C3E
7FFE
3FFC
3FF8
0FF0
07C0
07C0
07C0
07C0
07C0
07C0
0000
0000
0000
0000
03C0
07E0
07E0
07E0
03C0
ENDCHAR
STARTCHAR 1EF5
ENCODING 7925
SWIDTH 510 0
DWIDTH 17 0
BBX 15 32 1 -9
BITMAP
F83E
F83E
F83E
F83E
F83E
F83E
F83E
F83E
F83E
F83E
F83E
7C3E
7C3E
7FFE
3FFC
3FF8
0FF0
07C0
07C0
07C0
07C0
07C0
07C0
0000
0000
0000
0000
03C0
07E0
07E0
07E0
03C0
ENDCHAR
STARTCHAR 1EF6
ENCODING 7926
SWIDTH 510 0
DWIDTH 17 0
BBX 15 32 1 0
BITMAP
0380
01C0
01C0
0380
0380
0380
0380
0000
0000
F83E
F83E
F83E
F83E
F83E
F83E
F83E
F83E
F83E
F83E
F83E
7C3E
7C3E
7FFE
3FFC
3FF8
0FF0
07C0
07C0
07C0
07C0
07C0
07C0
ENDCHAR
STARTCHAR 1EF7
ENCODING 7927
SWIDTH 510 0
DWIDTH 17 0
BBX 15 32 1 0
BITMAP
0380
01C0
01C0
0380
0380
0380
0380
0000
0000
F83E
F83E
F83E
F83E
F83E
F83E
F83E
F83E
F83E
F83E
F83E
7C3E
7C3E
7FFE
3FFC
3FF8
0FF0
07C0
07C0
07C0
07C0
07C0
07C0
ENDCHAR
STARTCHAR 1EF8
ENCODING 7928
SWIDTH 510 0
DWIDTH 17 0
BBX 15 30 1 0
BITMAP
0F00
1FE0
1FE0
11E0
0000
0000
0000
F83E
F83E
F83E
F83E
F83E
F83E
F83E
F83E
F83E
F83E
F83E
7C3E
7C3E
7FFE
3FFC
3FF8
0FF0
07C0
07C0
07C0
07C0
07C0
07C0
ENDCHAR
STARTCHAR 1EF9
ENCODING 7929
SWIDTH 510 0
DWIDTH 17 0
BBX 15 30 1 0
BITMAP
0F00
1FE0
1FE0
11E0
0000
0000
0000
F83E
F83E
F83E
F83E
F83E
F83E
F83E
F83E
F83E
F83E
F83E
7C3E
7C3E
7FFE
3FFC
3FF8
0FF0
07C0
07C0
07C0
07C0
07C0
07C0
ENDCHAR
STARTCHAR 2013
ENCODING 8211
SWIDTH 570 0
DWIDTH 19 0
BBX 15 3 2 7
BITMAP
FFFE
FFFE
FFFE
ENDCHAR
STARTCHAR 2014
ENCODING 8212
SWIDTH 840 0
DWIDTH 28 0
BBX 24 3 2 7
BITMAP
FFFFFF
FFFFFF
FFFFFF
ENDCHAR
STARTCHAR 2018
ENCODING 8216
SWIDTH 240 0
DWIDTH 8 0
BBX 5 6 2 17
BITMAP
38
38
70
70
F0
F0
ENDCHAR
STARTCHAR 2019
ENCODING 8217
SWIDTH 240 0
DWIDTH 8 0
BBX 5 6 2 17
BITMAP
78
70
70
F0
E0
E0
ENDCHAR
STARTCHAR 201A
ENCODING 8218
SWIDTH 240 0
DWIDTH 8 0
BBX 5 7 2 -4
BITMAP
78
78
70
70
F0
E0
E0
ENDCHAR
STARTCHAR 201C
ENCODING 8220
SWIDTH 450 0
DWIDTH 15 0
BBX 11 6 2 17
BITMAP
38E0
38E0
79E0
71E0
71C0
F3C0
ENDCHAR
STARTCHAR 201D
ENCODING 8221
SWIDTH 450 0
DWIDTH 15 0
BBX 11 6 2 17
BITMAP
79E0
71E0
71C0
F1C0
E380
E380
ENDCHAR
STARTCHAR 201E
ENCODING 8222
SWIDTH 450 0
DWIDTH 15 0
BBX 12 7 2 -4
BITMAP
78F0
78E0
70E0
71E0
F1C0
E1C0
E1C0
ENDCHAR
STARTCHAR 2020
ENCODING 8224
SWIDTH 420 0
DWIDTH 14 0
BBX 11 17 2 7
BITMAP
0E00
0E00
0E00
FFE0
FFE0
FFE0
0E00
0E00
0E00
0E00
0E00
0E00
0E00
0E00
0E00
0E00
0E00
ENDCHAR
STARTCHAR 2021
ENCODING 8225
SWIDTH 420 0
DWIDTH 14 0
BBX 11 17 2 7
BITMAP
0E00
0E00
0E00
FFE0
FFE0
FFE0
0E00
0E00
0E00
0E00
FFE0
FFE0
FFE0
FFE0
0E00
0E00
0E00
ENDCHAR
STARTCHAR 2022
ENCODING 8226
SWIDTH 330 0
DWIDTH 11 0
BBX 8 7 2 6
BITMAP
7C
FE
FF
FF
FF
FE
7C
ENDCHAR
STARTCHAR 2026
ENCODING 8230
SWIDTH 750 0
DWIDTH 25 0
BBX 21 6 2 -1
BITMAP
7878F0
F8F8F8
FCF9F8
FCF8F8
78F8F8
202020
ENDCHAR
STARTCHAR 2030
ENCODING 8240
SWIDTH 1380 0
DWIDTH 46 0
BBX 42 24 2 0
BITMAP
0F0000000000
3FC00F000000
7FE01E000000
FFF03C000000
F0F038000000
F0F078000000
F0F0F0000000
F0F1E0000000
FFF1E0000000
7FE3C0000000
3FC780000000
060700000000
000F00000000
001E1F807E00
001C7FC0FF80
003C7FE1FFC0
0078F9F3E7C0
00F0F0F3C3C0
00F0F0F3C1C0
01E0F0F3C3C0
03C0F9F3E7C0
03807FE1FFC0
07807FE0FF80
0F001F807F00
ENDCHAR
STARTCHAR 2039
ENCODING 8249
SWIDTH 390 0
DWIDTH 13 0
BBX 10 15 2 3
BITMAP
07C0
0780
0F00
1F00
3E00
3C00
7800
F800
F800
7C00
3C00
1E00
1F00
0F80
0780
ENDCHAR
STARTCHAR 203A
ENCODING 8250
SWIDTH 390 0
DWIDTH 13 0
BBX 10 15 2 3
BITMAP
F800
7800
7C00
3E00
1F00
0F00
0F80
07C0
07C0
0F80
0F00
1E00
3C00
7C00
F800
ENDCHAR
STARTCHAR 2044
ENCODING 8260
SWIDTH 690 0
DWIDTH 23 0
BBX 19 23 2 0
BITMAP
0001E0
0001C0
0003C0
000780
000700
000F00
001E00
001C00
003C00
007800
00F000
00E000
01E000
03C000
038000
078000
0F0000
0E0000
1E0000
3C0000
780000
700000
F00000
ENDCHAR
STARTCHAR 20AC
ENCODING 8364
SWIDTH 630 0
DWIDTH 21 0
BBX 18 25 2 -1
BITMAP
000FC0
007FC0
00FFC0
01FFC0
03FFC0
07F000
0FC000
0F8000
FFFE00
FFFE00
FFFE00
FFFE00
1F0000
FFFE00
FFFE00
FFFE00
1F8000
0FC000
0FE000
07F8C0
03FFC0
01FFC0
00FFC0
003FC0
000300
ENDCHAR
STARTCHAR 2122
ENCODING 8482
SWIDTH 840 0
DWIDTH 28 0
BBX 25 13 2 11
BITMAP
FF810780
FFE1C780
FFF1F780
FFFDFF80
3C7FFF80
3C7FFF80
3C7FEF80
3C7BE780
3C79E780
3C79E780
3C79E780
3C79E780
3C79E780
ENDCHAR
STARTCHAR 2190
ENCODING 8592
SWIDTH 810 0
DWIDTH 27 0
BBX 24 18 2 3
BITMAP
008000
01C000
03E000
07C000
0F8000
1F0000
3E0000
7FFFFF
FFFFFF
FFFFFF
7FFFFF
3E0000
1F0000
0F8000
07C000
03E000
01C000
008000
ENDCHAR
STARTCHAR 2191
ENCODING 8593
SWIDTH 630 0
DWIDTH 21 0
BBX 17 24 2 0
BITMAP
008000
01C000
03E000
07F000
0FF800
1FFC00
3FFE00
7DFF00
F9EF80
71E780
21E300
01E000
01E000
01E000
01E000
01E000
01E000
01E000
01E000
01E000
01E000
01E000
01E000
01E000
ENDCHAR
STARTCHAR 2192
ENCODING 8594
SWIDTH 810 0
DWIDTH 27 0
BBX 23 16 2 4
BITMAP
000300
000780
0007C0
0003E0
0001F0
0000F8
FFFFFC
FFFFFE
FFFFFE
FFFFFC
0000F8
0001F0
0003E0
0007C0
000780
000300
ENDCHAR
STARTCHAR 2193
ENCODING 8595
SWIDTH 630 0
DWIDTH 21 0
BBX 17 23 2 -1
BITMAP
01E000
01E000
01E000
01E000
01E000
01E000
01E000
01E000
01E000
01E000
01E000
01E000
21E000
71E300
F9E780
7DEF80
3FFF00
1FFE00
0FFC00
07F800
03F000
01E000
00C000
ENDCHAR
STARTCHAR 2194
ENCODING 8596
SWIDTH 930 0
DWIDTH 31 0
BBX 27 18 2 3
BITMAP
00800000
01C03000
03E07800
07C07C00
0F803E00
1F001F00
3E000F80
7FFFFFC0
FFFFFFE0
FFFFFFE0
7FFFFFC0
3E000F80
1F001F00
0F803E00
07C07C00
03E07800
01C03000
00800000
ENDCHAR
STARTCHAR 2195
ENCODING 8597
SWIDTH 690 0
DWIDTH 23 0
BBX 20 24 2 -1
BITMAP
006000
00F000
01F800
07FE00
0FFF00
1FFF80
7EFFC0
FCF3F0
78F1E0
60F0C0
00F000
00F000
00F000
00F000
00F040
70F0E0
F8F1E0
FCF7E0
3FFFC0
1FFF80
0FFE00
03FC00
01F800
00E000
ENDCHAR
STARTCHAR 2196
ENCODING 8598
SWIDTH 660 0
DWIDTH 22 0
BBX 18 19 2 2
BITMAP
FFF000
FFF000
FFF000
FFF000
FE0000
FF0000
FF8000
EFC000
E7E000
E3F000
E1F800
E0FC00
E07E00
003F00
001F80
000FC0
0007C0
000380
000100
ENDCHAR
STARTCHAR 2197
ENCODING 8599
SWIDTH 660 0
DWIDTH 22 0
BBX 18 19 2 2
BITMAP
03FFC0
03FFC0
03FFC0
03FFC0
001FC0
003FC0
007FC0
00FDC0
01F9C0
03F1C0
07E1C0
0FC1C0
1F81C0
3F0000
7E0000
FC0000
F80000
700000
200000
ENDCHAR
STARTCHAR 2198
ENCODING 8600
SWIDTH 660 0
DWIDTH 22 0
BBX 18 18 2 3
BITMAP
300000
780000
FC0000
7E0000
3F0000
1F81C0
0FC1C0
07E1C0
03F1C0
01F9C0
00FDC0
007FC0
003FC0
001FC0
03FFC0
03FFC0
03FFC0
03FFC0
ENDCHAR
STARTCHAR 2199
ENCODING 8601
SWIDTH 660 0
DWIDTH 22 0
BBX 18 18 2 3
BITMAP
000300
000780
000FC0
001F80
003F00
E07E00
E07C00
E0F800
E1F000
E3E000
E7C000
EF8000
FF0000
FE0000
FFF000
FFF000
FFF000
FFF000
ENDCHAR
STARTCHAR 2202
ENCODING 8706
SWIDTH 600 0
DWIDTH 20 0
BBX 17 25 2 0
BITMAP
070000
078000
0FE000
0FF000
0FF800
03FC00
00FE00
007E00
003F00
001F00
0FDF00
1FEF80
3FFF80
7FFF80
FFFF80
FC1F80
F81F80
F81F80
F81F00
FC3F00
FE7E00
7FFE00
7FFC00
3FF800
0FF000
ENDCHAR
STARTCHAR 2205
ENCODING 8709
SWIDTH 720 0
DWIDTH 24 0
BBX 21 20 2 2
BITMAP
01FC30
07FF78
1F8FF0
1C01E0
3803E0
7007F0
700F70
E01E30
E03C38
E07838
E0F038
E1E038
E3C030
778070
7F0070
3E00E0
3C01C0
7F87C0
F7FF00
61FC00
ENDCHAR
STARTCHAR 220F
ENCODING 8719
SWIDTH 660 0
DWIDTH 22 0
BBX 19 28 2 -4
BITMAP
FFFFE0
FFFFE0
FFFFE0
FFFFE0
3C0F00
3C0F00
3C0F00
3C0F00
3C0F00
3C0F00
3C0F00
3C0F00
3C0F00
3C0F00
3C0F00
3C0F00
3C0F00
3C0F00
3C0F00
3C0F00
3C0F00
3C0F00
3C0F00
3C0F00
3C0F00
3C0F00
3C0F00
3C0F00
ENDCHAR
STARTCHAR 2211
ENCODING 8721
SWIDTH 510 0
DWIDTH 17 0
BBX 13 28 2 -4
BITMAP
FFF8
FFF8
FFF8
FFF8
F800
7C00
7C00
3E00
1F00
1F00
0F80
0F80
07C0
03C0
07C0
0780
0F80
1F00
1F00
3E00
3E00
7C00
7800
F800
FFF8
FFF8
FFF8
FFF8
ENDCHAR
STARTCHAR 2212
ENCODING 8722
SWIDTH 570 0
DWIDTH 19 0
BBX 16 4 2 9
BITMAP
FFFF
FFFF
FFFF
FFFF
ENDCHAR
STARTCHAR 221A
ENCODING 8730
SWIDTH 750 0
DWIDTH 25 0
BBX 21 28 2 -4
BITMAP
0007F8
0007F8
000FF8
000FF8
000F00
000F00
001F00
001E00
001E00
003E00
003E00
003C00
003C00
007C00
F87800
787800
78F800
7CF000
3CF000
3CF000
3FF000
1FE000
1FE000
1FE000
0FC000
0FC000
0FC000
07C000
ENDCHAR
STARTCHAR 221E
ENCODING 8734
SWIDTH 840 0
DWIDTH 28 0
BBX 25 12 2 6
BITMAP
06007000
3FC1FC00
7FE3FE00
F9F7CF00
E07F0700
E03E0380
E03E0380
E07F0700
F1FF8F00
7FE7FF00
3FC1FE00
1F00F800
ENDCHAR
STARTCHAR 222B
ENCODING 8747
SWIDTH 540 0
DWIDTH 18 0
BBX 14 28 2 -4
BITMAP
003C
00FC
01FC
01F0
01E0
03E0
03C0
03C0
03C0
03C0
03C0
07C0
0780
0780
0780
0780
0780
0F80
0F00
0F00
0F00
0F00
1F00
1E00
3E00
FE00
FC00
F000
ENDCHAR
STARTCHAR 2248
ENCODING 8776
SWIDTH 540 0
DWIDTH 18 0
BBX 15 12 2 5
BITMAP
7C00
FFFE
FFFE
FFFE
00FC
0000
0000
3000
FFCE
FFFE
FFFE
01FE
ENDCHAR
STARTCHAR 2260
ENCODING 8800
SWIDTH 570 0
DWIDTH 19 0
BBX 16 18 2 2
BITMAP
00F0
00F0
00F0
01E0
FFFF
FFFF
FFFF
03C0
0380
0780
0780
FFFF
FFFF
FFFF
FFFF
1E00
1C00
3C00
ENDCHAR
STARTCHAR 2264
ENCODING 8804
SWIDTH 570 0
DWIDTH 19 0
BBX 16 15 2 3
BITMAP
0007
00FF
1FFF
FFFC
FF80
FE00
FFF0
7FFF
03FF
001F
0001
0000
FFFF
FFFF
FFFF
ENDCHAR
STARTCHAR 2265
ENCODING 8805
SWIDTH 570 0
DWIDTH 19 0
BBX 16 15 2 3
BITMAP
E000
FF00
FFF0
7FFF
03FF
007F
0FFF
FFFE
FFC0
F800
0000
0000
FFFF
FFFF
FFFF
ENDCHAR
STARTCHAR 25CA
ENCODING 9674
SWIDTH 540 0
DWIDTH 18 0
BBX 14 20 2 2
BITMAP
0780
0FC0
0FE0
1FE0
1DF0
3CF0
3C78
7878
783C
F03C
F03C
7878
7878
3C70
3CF0
1EE0
1FE0
0FC0
0FC0
0780
ENDCHAR
ENDFONT
